<svg width="138" height="139" viewBox="0 0 138 139" fill="none" xmlns="http://www.w3.org/2000/svg">
<g filter="url(#filter0_i)">
<path d="M125.732 70.9056L99.781 117.263C98.2543 119.996 96.2039 122.402 93.747 124.342C91.29 126.283 88.4747 127.72 85.462 128.572C82.4493 129.424 79.2982 129.673 76.189 129.307C73.0797 128.94 70.0732 127.964 67.3413 126.435L20.9842 100.484C15.4717 97.3948 11.4106 92.2439 9.6928 86.1627C7.97499 80.0815 8.74087 73.5671 11.8222 68.0501L37.7728 21.693C39.2992 18.9601 41.3494 16.5549 43.8062 14.6151C46.2629 12.6752 49.078 11.2387 52.0904 10.3878C55.1028 9.53685 58.2534 9.28815 61.362 9.65591C64.4706 10.0237 67.4762 11.0007 70.2069 12.531L116.564 38.4816C119.295 40.0087 121.698 42.0586 123.637 44.5145C125.576 46.9704 127.012 49.7841 127.863 52.795C128.714 55.8058 128.964 58.9548 128.599 62.0623C128.233 65.1697 127.259 68.1747 125.732 70.9056V70.9056Z" fill="#D9915B"/>
</g>
<g style="mix-blend-mode:soft-light" opacity="0.4">
<path d="M74.4078 59.9081L64.9518 71.1725L66.2785 74.4299L74.4078 59.9081Z" fill="black"/>
</g>
<path fill-rule="evenodd" clip-rule="evenodd" d="M90.4324 88.8263C90.3701 88.9375 90.3079 89.0487 90.2456 89.1599C89.2321 90.948 88.0225 92.6175 86.6395 94.1374C84.4519 96.5338 81.7994 98.4577 78.8453 99.7904C75.8913 101.123 72.6982 101.836 69.463 101.886C57.954 102.228 45.8752 95.3198 40.4548 85.2096C38.9066 82.4178 37.9402 79.3386 37.6142 76.1578C37.2881 72.9771 37.609 69.7609 38.5576 66.7035C39.1597 64.767 39.9657 62.8996 40.962 61.1329C53.2718 75.9893 69.2083 84.9104 88.3959 88.4961L90.4324 88.8263Z" fill="#2B1607" stroke="black" stroke-width="1.48" stroke-linecap="round" stroke-linejoin="round"/>
<path fill-rule="evenodd" clip-rule="evenodd" d="M90.2488 89.1541C89.2526 90.9114 88.0603 92.5502 86.6942 94.0401C67.196 95.2981 47.6727 84.0167 38.6081 66.6128C39.1937 64.7062 39.9828 62.8692 40.962 61.1329C53.3239 75.8814 69.2538 84.7989 88.3824 88.4746L90.2488 89.1541Z" fill="white"/>
<path fill-rule="evenodd" clip-rule="evenodd" d="M70.2414 102.326C58.4286 102.492 45.9185 95.3428 40.196 85.0691C49.1878 92.4322 59.3482 98.2681 70.2414 102.326V102.326Z" fill="white"/>
<path fill-rule="evenodd" clip-rule="evenodd" d="M91.1345 88.4844C91.2477 88.7207 91.2386 88.998 91.1102 89.2274C86.7651 96.9893 80.2969 101.065 73.3133 102.285C66.3548 103.5 58.9328 101.875 52.6196 98.3406C46.3065 94.8065 41.0406 89.3294 38.4388 82.7622C35.8277 76.1712 35.9205 68.5266 40.2656 60.7647C40.3952 60.5331 40.63 60.3799 40.8934 60.3549C41.1567 60.3299 41.4149 60.4364 41.5838 60.6397C54.2274 75.8569 70.5972 84.8037 90.5416 88.0404C90.8 88.0824 91.0213 88.2481 91.1345 88.4844ZM41.1131 62.5822C37.5609 69.5501 37.6121 76.3057 39.9324 82.1623C42.3766 88.3319 47.3594 93.5479 53.4073 96.9335C59.4553 100.319 66.5067 101.84 73.0439 100.698C79.255 99.6131 85.0455 96.1197 89.1288 89.437C69.7434 86.0571 53.6658 77.2747 41.1131 62.5822Z" fill="black"/>
<g style="mix-blend-mode:soft-light" opacity="0.4">
<path d="M41.233 92.9104C42.3412 98.1884 56.3155 106.319 61.8457 104.449C54.1988 102.183 47.1627 98.2443 41.233 92.9104Z" fill="black"/>
</g>
<path fill-rule="evenodd" clip-rule="evenodd" d="M49.1846 63.944C45.3177 58.5097 38.1935 49.2002 40.1693 40.8947C40.2464 40.5049 40.3508 40.1209 40.4816 39.7457C43.1814 31.991 53.4563 31.2037 57.546 39.8338C64.7552 36.2713 71.2549 40.6908 71.5276 46.8002C71.5734 48.0028 71.3909 49.2033 70.9899 50.338C68.0205 58.8816 55.8949 61.9819 49.1846 63.944Z" fill="#CE0F0F"/>
<path opacity="0.2" fill-rule="evenodd" clip-rule="evenodd" d="M49.5161 61.0585C46.0958 56.2449 40.1233 48.4009 40.1693 40.8946C40.2464 40.5049 40.3508 40.1209 40.4816 39.7457C43.1814 31.991 53.4563 31.2037 57.546 39.8338C64.7552 36.2713 71.2549 40.6908 71.5277 46.8002C71.4205 46.9917 71.404 47.234 71.327 47.4424C68.3217 55.9792 56.2489 59.0561 49.5161 61.0585Z" fill="white"/>
<path opacity="0.4" fill-rule="evenodd" clip-rule="evenodd" d="M42.3002 39.3342C44.3476 36.5753 52.7925 36.2197 54.9807 38.4109C50.706 34.178 45.8662 34.6191 42.3002 39.3342Z" fill="white"/>
<path fill-rule="evenodd" clip-rule="evenodd" d="M84.167 83.5271C90.8211 83.9824 102.482 85.1886 108.529 79.1621C108.821 78.8926 109.093 78.6029 109.345 78.2953C114.544 71.9397 109.844 62.7692 100.349 63.7946C99.6166 55.7866 92.4511 52.5564 87.1005 55.5179C86.0514 56.1076 85.1235 56.8907 84.3658 57.8258C78.6251 64.818 82.3315 76.7811 84.167 83.5271Z" fill="#CE0F0F"/>
<path opacity="0.2" fill-rule="evenodd" clip-rule="evenodd" d="M86.4535 81.736C92.345 82.1351 102.154 83.1255 108.529 79.1621C108.821 78.8926 109.093 78.6029 109.345 78.2953C114.544 71.9397 109.844 62.7691 100.349 63.7946C99.6166 55.7866 92.4511 52.5564 87.1005 55.5179C86.9933 55.7094 86.7954 55.8501 86.658 56.0247C80.9116 63.027 84.6405 74.9497 86.4535 81.736Z" fill="white"/>
<path opacity="0.4" fill-rule="evenodd" clip-rule="evenodd" d="M108.735 76.5242C110.026 73.3422 105.905 65.9517 102.893 65.2319C108.746 66.6686 110.94 71.0475 108.735 76.5242Z" fill="white"/>
<defs>
<filter id="filter0_i" x="8.79468" y="9.49098" width="119.967" height="119.98" filterUnits="userSpaceOnUse" color-interpolation-filters="sRGB">
<feFlood flood-opacity="0" result="BackgroundImageFix"/>
<feBlend mode="normal" in="SourceGraphic" in2="BackgroundImageFix" result="shape"/>
<feColorMatrix in="SourceAlpha" type="matrix" values="0 0 0 0 0 0 0 0 0 0 0 0 0 0 0 0 0 0 127 0" result="hardAlpha"/>
<feOffset dx="-6" dy="-6"/>
<feComposite in2="hardAlpha" operator="arithmetic" k2="-1" k3="1"/>
<feColorMatrix type="matrix" values="0 0 0 0 0 0 0 0 0 0 0 0 0 0 0 0 0 0 0.04 0"/>
<feBlend mode="normal" in2="shape" result="effect1_innerShadow"/>
</filter>
</defs>
</svg>
