<svg width="156" height="156" viewBox="0 0 156 156" fill="none" xmlns="http://www.w3.org/2000/svg">
<g filter="url(#filter0_i)">
<path d="M131.916 29.7445L148.261 95.2035C149.228 99.0601 149.425 103.07 148.842 107.003C148.258 110.936 146.905 114.715 144.86 118.125C142.815 121.535 140.118 124.508 136.924 126.875C133.729 129.242 130.099 130.956 126.241 131.919L60.7824 148.264C52.9953 150.205 44.7565 148.975 37.8752 144.846C30.9938 140.717 26.0326 134.025 24.0808 126.241L7.73581 60.7823C6.769 56.9263 6.57188 52.9176 7.15571 48.9853C7.73955 45.0531 9.0929 41.2745 11.1383 37.8657C13.1838 34.457 15.8812 31.4849 19.0763 29.1196C22.2713 26.7542 25.9014 25.042 29.7588 24.0808L95.2177 7.73575C99.0725 6.77124 103.079 6.57543 107.01 7.15948C110.94 7.74353 114.717 9.09602 118.125 11.1397C121.533 13.1834 124.504 15.8783 126.871 19.0705C129.237 22.2627 130.951 25.8898 131.916 29.7445V29.7445Z" fill="#D84BE5"/>
</g>
<g style="mix-blend-mode:soft-light" opacity="0.4">
<path d="M74.8772 64.2416L75.9355 82.8893L79.9974 84.7474L74.8772 64.2416Z" fill="black"/>
</g>
<g style="mix-blend-mode:soft-light" filter="url(#filter1_f)">
<path d="M53.1509 86.2662L42.695 88.877C38.3485 89.9623 35.6928 94.3172 36.7632 98.6038C37.8335 102.891 42.2247 105.486 46.5711 104.4L57.027 101.79C61.3735 100.704 64.0292 96.3495 62.9589 92.0628C61.8885 87.7761 57.4973 85.1809 53.1509 86.2662Z" fill="#C140A3"/>
</g>
<g style="mix-blend-mode:soft-light" filter="url(#filter2_f)">
<path d="M113.319 71.2422L102.833 73.8607C98.4947 74.9439 95.8451 79.2939 96.9145 83.5768L96.918 83.5906C97.9874 87.8734 102.371 90.4673 106.709 89.3841L117.196 86.7656C121.533 85.6824 124.183 81.3324 123.114 77.0496L123.11 77.0357C122.041 72.7529 117.657 70.159 113.319 71.2422Z" fill="#C140A3"/>
</g>
<path fill-rule="evenodd" clip-rule="evenodd" d="M45.0106 94.4831C55.6701 137.172 125.525 119.73 114.866 77.0403C93.4451 91.529 70.2241 97.6 45.0106 94.4831Z" fill="white"/>
<path fill-rule="evenodd" clip-rule="evenodd" d="M56.6472 112.191C74.3964 124.043 102.582 117.215 113.06 98.7049C95.4115 107.074 76.1673 111.675 56.6472 112.191V112.191Z" fill="#DDDBDB"/>
<path d="M88.2088 118.734C79.3572 121.115 69.9549 120.387 61.5624 116.671C52.6854 112.528 46.5947 104.955 44.0561 94.7884C44.0166 94.6232 44.0168 94.451 44.0567 94.2861C44.0967 94.1211 44.1752 93.9682 44.2859 93.8398C44.3994 93.7149 44.5406 93.6185 44.698 93.5582C44.8555 93.4979 45.0249 93.4754 45.1926 93.4925C69.5545 96.4729 92.7779 90.6741 114.197 76.2623C114.336 76.1573 114.499 76.0888 114.672 76.063C114.844 76.0371 115.021 76.0546 115.185 76.114C115.349 76.1734 115.496 76.2728 115.612 76.4032C115.729 76.5337 115.811 76.691 115.852 76.8612C118.39 87.028 116.631 96.5609 110.687 104.405C105.039 111.606 97.1109 116.66 88.2088 118.734V118.734ZM46.5366 95.7401C52.3718 115.733 71.7784 120.691 87.7047 116.715C103.631 112.738 118.5 99.2213 114.173 78.821C93.1191 92.6433 70.381 98.3361 46.5366 95.7401Z" fill="black"/>
<g style="mix-blend-mode:soft-light" opacity="0.4">
<path d="M73.8641 123.353C79.4825 127.269 99.4832 122.628 102.97 116.085C93.9222 120.636 83.9899 123.117 73.8641 123.353V123.353Z" fill="black"/>
</g>
<g clip-path="url(#clip0)">
<path d="M94.4471 66.6783C94.2807 66.7179 94.1089 66.7302 93.9381 66.7147C93.7148 66.7016 93.4959 66.6437 93.2939 66.5444C93.0919 66.4451 92.9108 66.3063 92.761 66.1361C92.6112 65.9658 92.4956 65.7674 92.421 65.5523C92.3463 65.3371 92.3141 65.1095 92.326 64.8825C92.4265 61.9276 93.4766 59.0968 95.3153 56.824C97.154 54.5511 99.68 52.9616 102.506 52.2989V52.2989C105.312 51.5702 108.284 51.7928 110.972 52.9331C113.66 54.0734 115.918 56.0695 117.406 58.6199C117.639 59.0163 117.71 59.4889 117.602 59.9345C117.494 60.3802 117.217 60.7626 116.831 60.9984C116.641 61.1179 116.43 61.1974 116.209 61.2322C115.987 61.2671 115.761 61.2565 115.543 61.2012C115.325 61.1459 115.12 61.0469 114.94 60.9101C114.759 60.7734 114.607 60.6015 114.492 60.4047C113.371 58.4877 111.672 56.9876 109.651 56.1306C107.629 55.2735 105.395 55.1059 103.284 55.6531C101.177 56.1722 99.2978 57.373 97.9275 59.076C96.5571 60.7791 95.7693 62.8929 95.6816 65.1016C95.6622 65.4635 95.5331 65.8094 95.3121 66.0917C95.091 66.374 94.7888 66.5789 94.4471 66.6783V66.6783Z" fill="black"/>
<path d="M35.2765 81.453C35.1107 81.496 34.9383 81.5084 34.7676 81.4895C34.5436 81.4781 34.3235 81.4217 34.1202 81.3234C33.9168 81.225 33.7343 81.0869 33.5831 80.9168C33.4319 80.7467 33.3151 80.5481 33.2393 80.3325C33.1636 80.1168 33.1305 79.8885 33.1419 79.6606C33.2469 76.7071 34.2982 73.8789 36.1355 71.6071C37.9728 69.3353 40.4953 67.7446 43.3184 67.0777V67.0777C46.1236 66.3443 49.096 66.5648 51.7845 67.7057C54.473 68.8467 56.7308 70.8458 58.2153 73.3998C58.3345 73.594 58.4146 73.8102 58.4509 74.0355C58.4872 74.2609 58.479 74.491 58.4267 74.7122C58.3744 74.9334 58.2791 75.1414 58.1465 75.3239C58.0138 75.5063 57.8464 75.6596 57.6541 75.7748C57.2682 76.013 56.8036 76.0846 56.3625 75.9739C55.9215 75.8632 55.54 75.5792 55.3018 75.1843C54.1826 73.2695 52.4863 71.7704 50.4681 70.9128C48.4498 70.0551 46.2188 69.8851 44.1106 70.4285V70.4285C42.0008 70.9449 40.1186 72.145 38.746 73.8488C37.3734 75.5527 36.5842 77.6687 36.4967 79.8799C36.4796 80.24 36.353 80.5848 36.1345 80.8666C35.9159 81.1484 35.6161 81.3533 35.2765 81.453V81.453Z" fill="black"/>
</g>
<defs>
<filter id="filter0_i" x="0.401855" y="0.401802" width="155.196" height="155.196" filterUnits="userSpaceOnUse" color-interpolation-filters="sRGB">
<feFlood flood-opacity="0" result="BackgroundImageFix"/>
<feBlend mode="normal" in="SourceGraphic" in2="BackgroundImageFix" result="shape"/>
<feColorMatrix in="SourceAlpha" type="matrix" values="0 0 0 0 0 0 0 0 0 0 0 0 0 0 0 0 0 0 127 0" result="hardAlpha"/>
<feOffset dx="-6" dy="-6"/>
<feComposite in2="hardAlpha" operator="arithmetic" k2="-1" k3="1"/>
<feColorMatrix type="matrix" values="0 0 0 0 0 0 0 0 0 0 0 0 0 0 0 0 0 0 0.04 0"/>
<feBlend mode="normal" in2="shape" result="effect1_innerShadow"/>
</filter>
<filter id="filter1_f" x="26.5261" y="76.0194" width="46.6698" height="38.6278" filterUnits="userSpaceOnUse" color-interpolation-filters="sRGB">
<feFlood flood-opacity="0" result="BackgroundImageFix"/>
<feBlend mode="normal" in="SourceGraphic" in2="BackgroundImageFix" result="shape"/>
<feGaussianBlur stdDeviation="5" result="effect1_foregroundBlur"/>
</filter>
<filter id="filter2_f" x="86.6775" y="60.9961" width="46.6733" height="38.634" filterUnits="userSpaceOnUse" color-interpolation-filters="sRGB">
<feFlood flood-opacity="0" result="BackgroundImageFix"/>
<feBlend mode="normal" in="SourceGraphic" in2="BackgroundImageFix" result="shape"/>
<feGaussianBlur stdDeviation="5" result="effect1_foregroundBlur"/>
</filter>
<clipPath id="clip0">
<rect width="87.4601" height="29.9649" fill="white" transform="translate(29.012 63.434) rotate(-14.02)"/>
</clipPath>
</defs>
</svg>
