<svg width="156" height="156" viewBox="0 0 156 156" fill="none" xmlns="http://www.w3.org/2000/svg">
<g filter="url(#filter0_i)">
<path d="M131.863 29.6925L148.202 95.1528C149.169 99.0096 149.366 103.019 148.782 106.952C148.199 110.885 146.845 114.664 144.8 118.074C142.755 121.484 140.058 124.457 136.863 126.823C133.668 129.19 130.038 130.904 126.18 131.867L60.7195 148.206C52.9323 150.146 44.6936 148.916 37.8126 144.786C30.9316 140.656 25.9709 133.964 24.0198 126.18L7.68052 60.7194C6.71404 56.8634 6.51727 52.8546 7.10145 48.9224C7.68563 44.9902 9.0393 41.2117 11.085 37.8032C13.1308 34.3946 15.8284 31.4228 19.0237 29.0577C22.219 26.6926 25.8492 24.9807 29.7067 24.0198L95.1671 7.6805C99.0219 6.71633 103.029 6.52086 106.959 7.10526C110.89 7.68965 114.666 9.04247 118.074 11.0865C121.481 13.1305 124.453 15.8256 126.819 19.018C129.185 22.2105 130.899 25.8376 131.863 29.6925Z" fill="#F6D594"/>
</g>
<g style="mix-blend-mode:soft-light" opacity="0.4">
<path d="M74.8216 64.1846L75.8783 82.8324L79.94 84.6908L74.8216 64.1846Z" fill="black"/>
</g>
<g style="mix-blend-mode:soft-light" filter="url(#filter1_f)">
<path d="M53.0934 86.2073L42.6373 88.8172C38.2908 89.9021 35.6346 94.2567 36.7046 98.5435C37.7746 102.83 42.1656 105.426 46.5121 104.341L56.9682 101.731C61.3148 100.646 63.9709 96.2915 62.9009 92.0048C61.8309 87.718 57.4399 85.1224 53.0934 86.2073Z" fill="#C140A3"/>
</g>
<g style="mix-blend-mode:soft-light" filter="url(#filter2_f)">
<path d="M113.263 71.1885L102.776 73.8061C98.4383 74.8889 95.7883 79.2387 96.8573 83.5217L96.8608 83.5355C97.9298 87.8184 102.313 90.4127 106.651 89.3299L117.138 86.7123C121.476 85.6295 124.126 81.2797 123.057 76.9967L123.054 76.9829C121.985 72.7 117.601 70.1057 113.263 71.1885Z" fill="#C140A3"/>
</g>
<path d="M88.6407 119.592C88.3081 119.675 87.9538 119.614 87.6558 119.421C87.3578 119.228 87.1405 118.919 87.0517 118.563C86.9628 118.207 87.0097 117.833 87.1821 117.523C87.3544 117.212 87.6381 116.991 87.9707 116.908C91.6272 115.996 93.4474 114.131 92.9783 111.801C92.4245 109.133 89.0728 106.548 85.3906 107.077C85.0633 107.117 84.7301 107.021 84.4603 106.809C84.1905 106.597 84.005 106.285 83.9423 105.938C83.8794 105.601 83.9299 105.255 84.0848 104.961C84.2397 104.667 84.4892 104.444 84.7892 104.331C88.2802 103.204 89.9299 99.7011 89.2397 97.217C88.6826 94.985 86.1203 94.2138 82.5693 95.1002C82.2821 95.0732 82.0072 94.9508 81.7841 94.7505C81.5609 94.5502 81.4007 94.2822 81.3265 93.9847C81.2522 93.6872 81.2676 93.3754 81.3705 93.0937C81.4734 92.812 81.6584 92.5748 81.8994 92.416C87.8792 90.9234 90.8902 93.5485 91.7267 96.5062C92.045 97.9838 91.991 99.5122 91.5703 100.935C91.1495 102.359 90.3771 103.626 89.3316 104.608C90.7925 105.051 92.131 105.888 93.2146 107.036C94.2982 108.185 95.0892 109.604 95.5092 111.155C96.1336 114.33 94.6469 118.093 88.6407 119.592Z" fill="black"/>
<path d="M51.1753 84.6247L44.7836 86.2201C35.3664 88.5707 35.3841 88.6417 33.0158 79.1535L32.0267 75.1906C31.6367 73.6361 31.5569 72.02 31.792 70.4347C32.027 68.8493 32.5723 67.3258 33.3965 65.9514C34.2208 64.5769 35.3079 63.3784 36.5957 62.4243C37.8834 61.4703 39.3467 60.7795 40.9016 60.3913L42.4641 60.0014C44.019 59.6132 45.6353 59.5354 47.2203 59.7724C48.8054 60.0093 50.3282 60.5564 51.7017 61.3823C53.0752 62.2082 54.2724 63.2967 55.2249 64.5857C56.1774 65.8746 56.8664 67.3386 57.2527 68.8941L58.2596 72.928C60.5817 82.3522 60.564 82.2812 51.1753 84.6247Z" fill="black"/>
<path d="M39.8747 70.4738C41.1008 70.1678 41.8466 68.9258 41.5405 67.6997C41.2345 66.4737 39.9925 65.7279 38.7665 66.0339C37.5404 66.3399 36.7946 67.5819 37.1006 68.808C37.4067 70.034 38.6487 70.7798 39.8747 70.4738Z" fill="white"/>
<path opacity="0.1" d="M46.1221 77.9998C48.9751 77.2877 50.7105 74.3977 49.9984 71.5447C49.2863 68.6918 46.3963 66.9563 43.5434 67.6685C40.6904 68.3806 38.955 71.2706 39.6671 74.1235C40.3792 76.9764 43.2692 78.7119 46.1221 77.9998Z" fill="white"/>
<path d="M94.3913 66.6229C94.2249 66.6626 94.0531 66.6749 93.8823 66.6594C93.6591 66.6462 93.4401 66.5883 93.2381 66.489C93.0361 66.3897 92.855 66.2509 92.7053 66.0806C92.5555 65.9103 92.4399 65.7119 92.3653 65.4968C92.2907 65.2816 92.2584 65.054 92.2704 64.827C92.3711 61.8721 93.4214 59.0414 95.2604 56.7687C97.0993 54.496 99.6254 52.9067 102.451 52.2443C105.258 51.5158 108.229 51.7387 110.917 52.8793C113.605 54.0198 115.863 56.0161 117.351 58.5666C117.584 58.963 117.654 59.4356 117.547 59.8812C117.439 60.3268 117.162 60.7093 116.776 60.945C116.586 61.0645 116.374 61.144 116.153 61.1788C115.932 61.2136 115.706 61.203 115.488 61.1477C115.27 61.0924 115.065 60.9934 114.884 60.8566C114.704 60.7198 114.552 60.5479 114.437 60.3511C113.316 58.434 111.617 56.9338 109.596 56.0766C107.574 55.2193 105.34 55.0516 103.23 55.5985C101.122 56.1174 99.2428 57.3181 97.8723 59.021C96.5018 60.7239 95.7138 62.8377 95.626 65.0464C95.6065 65.4083 95.4774 65.7541 95.2563 66.0364C95.0352 66.3187 94.7331 66.5236 94.3913 66.6229Z" fill="black"/>
<defs>
<filter id="filter0_i" x="6.77307" y="6.77623" width="142.337" height="142.328" filterUnits="userSpaceOnUse" color-interpolation-filters="sRGB">
<feFlood flood-opacity="0" result="BackgroundImageFix"/>
<feBlend mode="normal" in="SourceGraphic" in2="BackgroundImageFix" result="shape"/>
<feColorMatrix in="SourceAlpha" type="matrix" values="0 0 0 0 0 0 0 0 0 0 0 0 0 0 0 0 0 0 127 0" result="hardAlpha"/>
<feOffset dx="-6" dy="-6"/>
<feComposite in2="hardAlpha" operator="arithmetic" k2="-1" k3="1"/>
<feColorMatrix type="matrix" values="0 0 0 0 0 0 0 0 0 0 0 0 0 0 0 0 0 0 0.04 0"/>
<feBlend mode="normal" in2="shape" result="effect1_innerShadow"/>
</filter>
<filter id="filter1_f" x="26.4678" y="75.9607" width="46.67" height="38.6269" filterUnits="userSpaceOnUse" color-interpolation-filters="sRGB">
<feFlood flood-opacity="0" result="BackgroundImageFix"/>
<feBlend mode="normal" in="SourceGraphic" in2="BackgroundImageFix" result="shape"/>
<feGaussianBlur stdDeviation="5" result="effect1_foregroundBlur"/>
</filter>
<filter id="filter2_f" x="86.6205" y="60.9426" width="46.6735" height="38.6331" filterUnits="userSpaceOnUse" color-interpolation-filters="sRGB">
<feFlood flood-opacity="0" result="BackgroundImageFix"/>
<feBlend mode="normal" in="SourceGraphic" in2="BackgroundImageFix" result="shape"/>
<feGaussianBlur stdDeviation="5" result="effect1_foregroundBlur"/>
</filter>
</defs>
</svg>
