<svg width="138" height="138" viewBox="0 0 138 138" fill="none" xmlns="http://www.w3.org/2000/svg">
<g filter="url(#filter0_i)">
<path d="M125.546 70.0175L99.592 116.371C98.0651 119.104 96.0146 121.51 93.5575 123.45C91.1005 125.39 88.2851 126.827 85.2724 127.679C82.2597 128.53 79.1087 128.78 75.9996 128.413C72.8904 128.046 69.884 127.07 67.1523 125.54L20.7987 99.5864C15.2866 96.4966 11.226 91.3455 9.50877 85.2643C7.79151 79.1831 8.55792 72.669 11.6397 67.1524L37.5935 20.7987C39.1201 18.066 41.1705 15.6611 43.6273 13.7215C46.0842 11.7819 48.8993 10.3457 51.9117 9.49501C54.9241 8.64435 58.0746 8.39592 61.1831 8.76393C64.2916 9.13194 67.297 10.1092 70.0275 11.6397L116.381 37.5936C119.112 39.1208 121.515 41.1709 123.454 43.6269C125.392 46.0829 126.828 48.8967 127.679 51.9075C128.53 54.9183 128.779 58.0673 128.413 61.1746C128.047 64.2819 127.073 67.2868 125.546 70.0175Z" fill="#D9915B"/>
</g>
<g style="mix-blend-mode:soft-light" opacity="0.4">
<path d="M74.2242 59.0159L64.7676 70.2793L66.0939 73.5367L74.2242 59.0159Z" fill="black"/>
</g>
<g style="mix-blend-mode:soft-light" filter="url(#filter1_f)">
<path d="M49.8809 59.9195L42.4767 55.7738C39.3989 54.0505 35.526 55.1143 33.8264 58.1498C32.1268 61.1853 33.244 65.0431 36.3219 66.7664L43.7261 70.9121C46.8039 72.6354 50.6768 71.5717 52.3764 68.5361C54.0761 65.5006 52.9588 61.6428 49.8809 59.9195Z" fill="#C140A3"/>
</g>
<g style="mix-blend-mode:soft-light" filter="url(#filter2_f)">
<path d="M92.4883 83.7757L85.0623 79.6178C81.9905 77.8979 78.1237 78.9622 76.4256 81.995L76.4201 82.0048C74.722 85.0376 75.8356 88.8905 78.9074 90.6105L86.3334 94.7683C89.4052 96.4883 93.272 95.424 94.9701 92.3912L94.9756 92.3814C96.6737 89.3485 95.5601 85.4957 92.4883 83.7757Z" fill="#C140A3"/>
</g>
<path d="M61.6536 81.8523L61.1361 81.5626C54.3857 77.9797 44.8141 77.1979 38.6387 83.5378C38.5234 83.6361 38.4304 83.7575 38.3657 83.8941C38.301 84.0308 38.2659 84.1798 38.2627 84.3315C38.2595 84.4832 38.2882 84.6344 38.3471 84.7753C38.406 84.9162 38.4937 85.0438 38.6047 85.1499C38.7156 85.256 38.8474 85.3383 38.9915 85.3914C39.1356 85.4446 39.2889 85.4676 39.4416 85.4588C39.5943 85.4501 39.743 85.4098 39.8783 85.3405C40.0136 85.2713 40.1324 85.1747 40.2272 85.0567C45.6224 79.5391 54.1058 80.2887 60.1145 83.4825C65.838 86.5429 71.7164 93.4447 69.9444 102.132C69.9704 102.375 70.0738 102.605 70.2396 102.788C70.4053 102.971 70.6248 103.097 70.8662 103.149C71.1076 103.201 71.3583 103.175 71.5819 103.076C71.8056 102.977 71.9905 102.809 72.1099 102.597C73.7224 94.6465 69.7307 86.3747 61.6536 81.8523Z" fill="black"/>
<path d="M87.6624 82.8785C90.0312 84.2048 92.8298 84.5358 95.4426 83.7987C98.0554 83.0616 100.268 81.3167 101.595 78.9479L101.848 78.4953C105.869 71.314 100.535 62.224 95.094 60.0495C90.2771 58.1055 88.3044 60.7793 85.911 65.0539L83.7316 68.9463C82.4085 71.3157 82.0792 74.1132 82.8161 76.7251C83.553 79.3371 85.2959 81.55 87.6624 82.8785Z" fill="black"/>
<path d="M92.6146 67.3045C93.4828 67.7906 94.5807 67.4808 95.0668 66.6127C95.5529 65.7445 95.2432 64.6466 94.375 64.1605C93.5068 63.6744 92.4089 63.9841 91.9228 64.8523C91.4367 65.7205 91.7464 66.8184 92.6146 67.3045Z" fill="white"/>
<path opacity="0.1" d="M92.1359 74.9913C94.1561 76.1224 96.7108 75.4017 97.8419 73.3815C98.9731 71.3613 98.2523 68.8066 96.2321 67.6755C94.2119 66.5443 91.6573 67.2651 90.5261 69.2853C89.395 71.3055 90.1157 73.8601 92.1359 74.9913Z" fill="white"/>
<path d="M45.7479 59.4103C43.3811 58.0815 41.6381 55.8681 40.902 53.2563C40.1659 50.6445 40.4969 47.8479 41.8222 45.4808L42.0756 45.0282C46.0965 37.8469 56.6285 37.6404 61.3289 41.1441C65.5164 44.2417 64.258 47.3155 61.8646 51.5901L59.6852 55.4825C58.359 57.8513 56.1455 59.5958 53.5317 60.3324C50.918 61.069 48.1181 60.7373 45.7479 59.4103Z" fill="black"/>
<path d="M50.7152 43.8447C51.5834 44.3308 52.6813 44.021 53.1674 43.1529C53.6535 42.2847 53.3437 41.1868 52.4756 40.7007C51.6074 40.2146 50.5095 40.5243 50.0234 41.3925C49.5373 42.2607 49.847 43.3586 50.7152 43.8447Z" fill="white"/>
<path opacity="0.1" d="M50.2365 51.5315C52.2567 52.6626 54.8114 51.9419 55.9425 49.9217C57.0737 47.9015 56.3529 45.3468 54.3327 44.2157C52.3125 43.0845 49.7578 43.8053 48.6267 45.8255C47.4956 47.8457 48.2163 50.4003 50.2365 51.5315Z" fill="white"/>
<defs>
<filter id="filter0_i" x="8.61121" y="8.59877" width="119.966" height="119.978" filterUnits="userSpaceOnUse" color-interpolation-filters="sRGB">
<feFlood flood-opacity="0" result="BackgroundImageFix"/>
<feBlend mode="normal" in="SourceGraphic" in2="BackgroundImageFix" result="shape"/>
<feColorMatrix in="SourceAlpha" type="matrix" values="0 0 0 0 0 0 0 0 0 0 0 0 0 0 0 0 0 0 127 0" result="hardAlpha"/>
<feOffset dx="-6" dy="-6"/>
<feComposite in2="hardAlpha" operator="arithmetic" k2="-1" k3="1"/>
<feColorMatrix type="matrix" values="0 0 0 0 0 0 0 0 0 0 0 0 0 0 0 0 0 0 0.04 0"/>
<feBlend mode="normal" in2="shape" result="effect1_innerShadow"/>
</filter>
<filter id="filter1_f" x="23.032" y="44.9488" width="40.1389" height="36.7884" filterUnits="userSpaceOnUse" color-interpolation-filters="sRGB">
<feFlood flood-opacity="0" result="BackgroundImageFix"/>
<feBlend mode="normal" in="SourceGraphic" in2="BackgroundImageFix" result="shape"/>
<feGaussianBlur stdDeviation="5" result="effect1_foregroundBlur"/>
</filter>
<filter id="filter2_f" x="65.6256" y="68.7951" width="40.1444" height="36.7959" filterUnits="userSpaceOnUse" color-interpolation-filters="sRGB">
<feFlood flood-opacity="0" result="BackgroundImageFix"/>
<feBlend mode="normal" in="SourceGraphic" in2="BackgroundImageFix" result="shape"/>
<feGaussianBlur stdDeviation="5" result="effect1_foregroundBlur"/>
</filter>
</defs>
</svg>
