<svg width="192" height="192" viewBox="0 0 192 192" fill="none" xmlns="http://www.w3.org/2000/svg">
<g filter="url(#filter0_i)">
<path d="M177.146 91.3869L145.576 160.343C143.719 164.408 141.079 168.068 137.808 171.113C134.536 174.157 130.696 176.527 126.508 178.087C122.32 179.647 117.865 180.366 113.399 180.204C108.932 180.041 104.542 179 100.478 177.139L31.5224 145.569C23.3222 141.81 16.9492 134.95 13.8027 126.495C10.6563 118.041 10.9937 108.684 14.741 100.478L46.3113 31.5224C48.1676 27.4577 50.8069 23.7987 54.0785 20.7549C57.35 17.7111 61.1896 15.3421 65.3775 13.7835C69.5654 12.2249 74.0195 11.5072 78.485 11.6715C82.9505 11.8358 87.3399 12.8788 91.4019 14.7409L160.358 46.3113C164.42 48.1687 168.076 50.8079 171.118 54.0784C174.16 57.3489 176.528 61.1865 178.087 65.3721C179.646 69.5578 180.365 74.0095 180.204 78.4731C180.042 82.9368 179.003 87.3249 177.146 91.3869V91.3869Z" fill="#F6D594"/>
</g>
<g style="mix-blend-mode:soft-light" opacity="0.4">
<path d="M102.85 81.666L90.6967 98.7855L92.9604 103.267L102.85 81.666Z" fill="black"/>
</g>
<g style="mix-blend-mode:soft-light" filter="url(#filter1_f)">
<path d="M68.3172 85.7658L57.3027 80.723C52.7241 78.6268 47.3365 80.5881 45.269 85.1037C43.2016 89.6194 45.2373 94.9794 49.8159 97.0756L60.8304 102.118C65.409 104.215 70.7966 102.253 72.8641 97.7377C74.9315 93.2221 72.8958 87.8621 68.3172 85.7658Z" fill="#C140A3"/>
</g>
<g style="mix-blend-mode:soft-light" filter="url(#filter2_f)">
<path d="M131.7 114.785L120.653 109.727C116.083 107.635 110.704 109.596 108.639 114.108L108.632 114.122C106.567 118.634 108.597 123.987 113.166 126.08L124.213 131.137C128.783 133.229 134.162 131.268 136.227 126.756L136.234 126.742C138.299 122.23 136.269 116.877 131.7 114.785Z" fill="#C140A3"/>
</g>
<path fill-rule="evenodd" clip-rule="evenodd" d="M40.6105 125.06C63.0709 76.0021 134.614 108.757 112.153 157.815L40.6105 125.06Z" fill="#2B1607"/>
<path fill-rule="evenodd" clip-rule="evenodd" d="M63.7866 104.382C82.1777 96.2544 105.72 107.162 112.844 126.843L63.7866 104.382Z" fill="white"/>
<path d="M45.0097 118.116L114.473 149.918C113.716 152.436 112.769 154.897 111.642 157.277L41.1258 124.992C42.2176 122.588 43.5181 120.286 45.0097 118.116Z" fill="white"/>
<path d="M111.645 158.762L40.1638 126.036C39.8848 125.908 39.6681 125.675 39.5613 125.387C39.4544 125.099 39.4663 124.78 39.5942 124.501C51.4596 98.5847 75.9597 95.4462 93.693 103.565C111.426 111.684 125.045 132.275 113.2 158.146C113.142 158.293 113.056 158.425 112.945 158.537C112.834 158.648 112.702 158.735 112.556 158.793C112.41 158.851 112.254 158.878 112.097 158.873C111.941 158.868 111.787 158.83 111.645 158.762V158.762ZM42.1949 124.418L111.484 156.14C116.097 145.476 116.419 134.911 112.426 125.51C108.534 116.665 101.481 109.596 92.6489 105.689C76.2273 98.1887 53.5804 100.919 42.1949 124.418Z" fill="black"/>
<path d="M118.328 97.5359C118.154 97.454 117.994 97.3443 117.855 97.2109C117.668 97.0427 117.517 96.8383 117.409 96.6093C117.301 96.3804 117.239 96.1314 117.227 95.8768C117.215 95.6222 117.253 95.3669 117.338 95.1256C117.424 94.8842 117.555 94.6617 117.725 94.4707C119.886 91.9461 122.794 90.1968 126.004 89.4907C129.213 88.7846 132.547 89.1608 135.494 90.5615V90.5615C138.469 91.8903 140.923 94.1705 142.483 97.0579C144.044 99.9452 144.627 103.283 144.145 106.567C144.071 107.078 143.802 107.543 143.394 107.858C142.987 108.174 142.475 108.316 141.971 108.252C141.72 108.224 141.479 108.145 141.26 108.021C141.041 107.896 140.85 107.728 140.698 107.527C140.545 107.325 140.434 107.094 140.372 106.848C140.309 106.601 140.296 106.343 140.333 106.089C140.694 103.62 140.254 101.11 139.08 98.9392C137.906 96.7682 136.061 95.0534 133.824 94.0534C131.609 93.0308 129.116 92.7669 126.718 93.3012C124.32 93.8354 122.145 95.1391 120.518 97.0174C120.247 97.3216 119.891 97.5348 119.499 97.6276C119.107 97.7205 118.698 97.6884 118.328 97.5359V97.5359Z" fill="black"/>
<path d="M55.9964 68.9983C55.8206 68.9197 55.6606 68.8097 55.5239 68.6733C55.3351 68.5061 55.1814 68.3022 55.0718 68.0732C54.9622 67.8442 54.8989 67.5947 54.8854 67.3393C54.872 67.0838 54.9087 66.8274 54.9935 66.5849C55.0782 66.3424 55.2094 66.1187 55.3793 65.9265C57.5436 63.4064 60.4512 61.6601 63.6586 60.954C66.8661 60.2478 70.1974 60.6206 73.1445 62.0155V62.0155C76.1228 63.3395 78.5785 65.6185 80.1392 68.5068C81.6998 71.395 82.2802 74.7348 81.7921 78.0193C81.7605 78.2735 81.6792 78.5195 81.5529 78.7429C81.4267 78.9663 81.258 79.1625 81.0569 79.3202C80.8558 79.4778 80.6262 79.5936 80.3817 79.6608C80.1372 79.7279 79.8826 79.7451 79.6329 79.7113C79.1268 79.6497 78.6686 79.3867 78.3589 78.9801C78.0492 78.5734 77.9134 78.0563 77.9813 77.5424C78.3418 75.0755 77.9037 72.5689 76.733 70.3997C75.5623 68.2305 73.7222 66.516 71.4895 65.5141V65.5141C69.2742 64.4874 66.7793 64.2208 64.3784 64.7542C61.9775 65.2876 59.7999 66.5923 58.1717 68.4728C57.904 68.7771 57.551 68.9911 57.1613 69.0853C56.7716 69.1794 56.3646 69.149 55.9964 68.9983V68.9983Z" fill="black"/>
<path d="M45.013 89.351C44.362 90.0854 43.5725 90.6839 42.6896 91.1123C41.8067 91.5407 40.8478 91.7905 39.8681 91.8474C38.8884 91.9043 37.907 91.7671 36.9804 91.4437C36.0538 91.1204 35.2002 90.6172 34.4685 89.9632C33.1322 88.5068 32.4276 86.5802 32.5091 84.6054C32.5906 82.6307 33.4516 80.7689 34.9034 79.4278C38.9454 75.3128 44.0754 76.6642 52.221 71.9437C47.4118 79.7148 49.4558 84.8755 45.013 89.351Z" fill="#4ABCF4"/>
<path d="M132.672 129.484C132.532 130.451 132.592 131.437 132.85 132.38C133.107 133.322 133.556 134.202 134.168 134.964C134.78 135.726 135.542 136.354 136.407 136.808C137.272 137.263 138.221 137.535 139.196 137.607C140.171 137.679 141.15 137.55 142.072 137.228C142.995 136.905 143.841 136.397 144.558 135.733C145.276 135.069 145.849 134.265 146.242 133.371C146.635 132.476 146.84 131.51 146.844 130.533C147.284 124.86 142.909 121.859 141.115 112.588C138.399 121.372 133.157 123.197 132.672 129.484Z" fill="#4ABCF4"/>
<defs>
<filter id="filter0_i" x="0.582275" y="0.582306" width="190.715" height="190.715" filterUnits="userSpaceOnUse" color-interpolation-filters="sRGB">
<feFlood flood-opacity="0" result="BackgroundImageFix"/>
<feBlend mode="normal" in="SourceGraphic" in2="BackgroundImageFix" result="shape"/>
<feColorMatrix in="SourceAlpha" type="matrix" values="0 0 0 0 0 0 0 0 0 0 0 0 0 0 0 0 0 0 127 0" result="hardAlpha"/>
<feOffset dx="-6" dy="-6"/>
<feComposite in2="hardAlpha" operator="arithmetic" k2="-1" k3="1"/>
<feColorMatrix type="matrix" values="0 0 0 0 0 0 0 0 0 0 0 0 0 0 0 0 0 0 0.04 0"/>
<feBlend mode="normal" in2="shape" result="effect1_innerShadow"/>
</filter>
<filter id="filter1_f" x="34.4608" y="69.8828" width="49.2115" height="43.0758" filterUnits="userSpaceOnUse" color-interpolation-filters="sRGB">
<feFlood flood-opacity="0" result="BackgroundImageFix"/>
<feBlend mode="normal" in="SourceGraphic" in2="BackgroundImageFix" result="shape"/>
<feGaussianBlur stdDeviation="5" result="effect1_foregroundBlur"/>
</filter>
<filter id="filter2_f" x="97.824" y="98.8892" width="49.2182" height="43.0858" filterUnits="userSpaceOnUse" color-interpolation-filters="sRGB">
<feFlood flood-opacity="0" result="BackgroundImageFix"/>
<feBlend mode="normal" in="SourceGraphic" in2="BackgroundImageFix" result="shape"/>
<feGaussianBlur stdDeviation="5" result="effect1_foregroundBlur"/>
</filter>
</defs>
</svg>
