<svg width="202" height="197" viewBox="0 0 202 197" fill="none" xmlns="http://www.w3.org/2000/svg">
<g filter="url(#filter0_i)">
<path d="M120.98 24.6111L161.433 78.6072C163.82 81.787 165.557 85.406 166.545 89.2575C167.532 93.1089 167.751 97.1172 167.189 101.053C166.626 104.989 165.294 108.776 163.267 112.197C161.24 115.617 158.559 118.605 155.377 120.989L101.381 161.442C94.956 166.251 86.8853 168.313 78.9411 167.176C70.9969 166.039 63.8288 161.795 59.0108 155.377L18.5578 101.381C16.1711 98.2019 14.4347 94.5833 13.4477 90.7324C12.4608 86.8815 12.2428 82.8739 12.8061 78.9386C13.3694 75.0034 14.703 71.2178 16.7306 67.7984C18.7582 64.379 21.44 61.3929 24.6227 59.0109L78.6189 18.5578C81.7978 16.1738 85.4152 14.4393 89.2645 13.4532C93.1138 12.4672 97.1196 12.249 101.053 12.8111C104.987 13.3732 108.771 14.7046 112.19 16.7292C115.609 18.7539 118.596 21.4321 120.98 24.6111V24.6111Z" fill="#FCBC34"/>
</g>
<g style="mix-blend-mode:soft-light" opacity="0.4">
<path d="M81.7855 78.5297L89.9933 95.3073L94.4579 95.4446L81.7855 78.5297Z" fill="black"/>
</g>
<path opacity="0.39" d="M64.5384 163.102C65.2415 162.962 65.7328 162.685 65.7859 162.168C65.8715 161.056 64.7244 160.996 63.4597 160.878L61.639 160.679C60.9526 158.097 59.8195 155.655 58.2911 153.464C58.0618 153.158 57.8325 152.852 57.6032 152.545L64.0975 153.194C65.5387 153.328 66.4741 153.252 66.6449 152.499C66.8158 151.746 65.9277 151.198 65.263 150.998C64.2895 150.753 58.2777 149.522 52.9748 148.403C52.6554 148.192 52.3256 147.998 51.9867 147.82C51.3174 145.288 50.2221 142.889 48.7476 140.725C48.5006 140.395 48.2448 140.054 47.9979 139.724C48.2155 139.745 48.4244 139.754 48.6391 139.795C50.542 140.079 72.9864 143.723 76.3924 144.075C74.5815 141.094 65.4843 130.447 72.2126 126.234C74.7074 124.659 76.7513 125.719 78.6413 129.689C81.3632 135.406 85.6562 139.763 90.9286 144.25C97.7242 150.059 100.946 154.63 101.047 161.484L101.024 161.796C98.0927 163.273 95.5697 165.448 93.6763 168.13C91.783 170.811 90.5772 173.916 90.165 177.173C89.526 177.403 88.8713 177.587 88.2058 177.722C82.3367 178.521 76.4285 179.002 70.5072 179.162C70.7135 174.115 69.216 169.145 66.2556 165.051C65.7392 164.354 65.1647 163.702 64.5384 163.102V163.102Z" fill="black"/>
<path d="M73.647 146.902C70.3877 146.542 48.8012 142.939 46.9894 142.638C44.2425 142.208 41.9564 142.612 41.2308 144.686C41.0568 145.118 40.9765 145.583 40.9952 146.05C41.014 146.518 41.1313 146.977 41.3396 147.397C41.5478 147.818 41.8422 148.19 42.2032 148.49C42.5642 148.789 42.9837 149.009 43.434 149.135C46.2092 149.968 61.4013 153.09 62.9676 153.502C63.6041 153.67 64.4613 154.06 64.3072 154.949C64.1532 155.839 63.2446 155.745 61.8701 155.614C60.4956 155.483 44.7389 153.797 42.743 153.615C42.243 153.504 41.7263 153.499 41.2265 153.601C40.7267 153.703 40.2549 153.909 39.8417 154.206C39.4285 154.504 39.0831 154.886 38.8279 155.327C38.5728 155.769 38.4136 156.26 38.3606 156.769C38.2936 157.213 38.316 157.666 38.4264 158.102C38.5367 158.539 38.7329 158.95 39.0032 159.31C39.2735 159.671 39.6126 159.975 40.0004 160.203C40.3882 160.432 40.8169 160.581 41.2613 160.641C42.6715 160.893 60.3161 162.86 61.2247 162.953C62.1333 163.047 63.5103 163.084 63.4599 164.209C63.4095 165.334 62.1754 165.171 60.8808 165.22C59.8731 165.238 44.8036 165.175 43.6672 165.215C43.2036 165.195 42.7421 165.275 42.3134 165.448C41.8847 165.621 41.4987 165.884 41.181 166.22C40.8633 166.556 40.6212 166.956 40.4709 167.395C40.3205 167.833 40.2653 168.3 40.309 168.763C40.3272 169.199 40.4312 169.628 40.6149 170.025C40.7987 170.422 41.0586 170.78 41.3796 171.077C41.7007 171.374 42.0766 171.606 42.4856 171.758C42.8947 171.91 43.3289 171.979 43.7631 171.962C44.9583 171.952 62.2897 172.089 62.8671 172.154C63.4445 172.219 64.3796 172.348 64.3975 173.053C64.4155 173.758 63.7407 174.172 62.8211 174.234C61.9016 174.296 50.4907 174.81 49.5131 174.989C48.7031 175.052 47.9538 175.433 47.4292 176.051C46.9045 176.668 46.6471 177.472 46.7133 178.285C46.8853 179.999 48.3223 180.968 50.3238 181.109C52.3253 181.25 78.9069 180.52 85.0825 179.321C88.6314 178.591 91.8006 176.635 94.0401 173.793C96.2796 170.95 97.4482 167.4 97.343 163.759C97.2888 157.165 94.1689 152.758 87.5864 147.111C82.501 142.756 78.3684 138.554 75.7267 133.033C73.8896 129.193 71.9017 128.195 69.5532 129.659C63.1185 133.724 71.8992 144.009 73.647 146.902Z" fill="#FCBC34"/>
<path opacity="0.1" d="M91.6917 150.901C94.1613 153.879 95.4901 157.639 95.4412 161.512C95.5179 165.138 94.3242 168.68 92.0666 171.526C89.809 174.373 86.6293 176.344 83.0771 177.101C76.8172 178.39 50.4961 179.168 48.2649 179.03C47.6253 178.998 46.9975 178.848 46.4127 178.589C46.3795 178.456 46.3572 178.319 46.346 178.182C46.3132 177.781 46.36 177.378 46.4838 176.995C46.6076 176.612 46.8059 176.258 47.0674 175.951C47.3289 175.645 47.6483 175.393 48.0072 175.21C48.3661 175.028 48.7575 174.917 49.1588 174.886C50.1355 174.721 61.4608 174.171 62.4844 174.045C63.508 173.918 64.0864 173.539 64.0702 172.856C64.054 172.174 63.1306 172.043 62.5443 171.97L61.5533 171.945C61.7888 171.895 62.0007 171.767 62.1548 171.581C62.309 171.396 62.3963 171.165 62.4027 170.924C62.3895 170.221 61.4543 170.099 60.8768 170.038C60.2993 169.977 42.9553 169.935 41.756 169.975C41.193 169.98 40.6374 169.851 40.1352 169.598C40.0506 169.324 40.0038 169.039 39.9962 168.752C39.9565 168.288 40.0158 167.822 40.1702 167.383C40.3246 166.944 40.5705 166.542 40.8917 166.205C41.2129 165.867 41.602 165.602 42.0332 165.426C42.4644 165.249 42.9279 165.167 43.393 165.183C44.5571 165.17 59.6405 165.132 60.6229 165.073C61.9453 165.051 63.1567 164.856 63.2229 164.039C63.289 163.222 62.2398 162.947 61.0027 162.814C61.1505 162.757 61.2801 162.662 61.3776 162.537C61.475 162.413 61.5365 162.264 61.5554 162.107C61.6367 161.04 60.5606 161.024 59.3147 160.879C58.3854 160.789 40.7372 158.945 39.3478 158.706C38.9664 158.629 38.5977 158.499 38.2519 158.321C38.1051 157.836 38.0789 157.322 38.1757 156.824C38.2321 156.316 38.3948 155.825 38.6531 155.383C38.9114 154.941 39.2597 154.558 39.6753 154.259C40.0908 153.959 40.5645 153.75 41.0655 153.646C41.5664 153.541 42.0836 153.542 42.5833 153.65C44.5563 153.835 60.5191 155.387 61.727 155.506C62.9348 155.625 64.0373 155.604 64.1591 154.836C64.2809 154.068 63.4462 153.542 62.8396 153.393L62.3238 153.267C62.4144 153.165 62.4728 153.039 62.4916 152.904C62.6635 152.007 61.7788 151.61 61.1721 151.461C59.5983 151.049 44.4213 148.049 41.6491 147.237C41.4432 147.182 41.2438 147.104 41.0543 147.007C40.8376 146.253 40.8806 145.449 41.1762 144.721C41.9046 142.658 44.1955 142.24 46.9539 142.642C48.7771 142.921 70.3484 146.378 73.6201 146.706C71.8782 143.842 63.1577 133.647 69.6079 129.6C70.1364 129.177 70.7898 128.94 71.4661 128.926C72.1423 128.912 72.8036 129.122 73.3466 129.524C73.6306 129.992 73.889 130.476 74.1208 130.973C75.5664 133.939 77.4553 136.666 79.7227 139.062C81.6602 141.139 83.7319 143.086 85.9243 144.892C88.0711 146.645 90.0348 148.61 91.7858 150.758C91.7896 150.773 91.7902 150.79 91.7875 150.805C91.7847 150.821 91.7788 150.836 91.7699 150.85C91.7611 150.863 91.7496 150.875 91.7361 150.884C91.7227 150.893 91.7075 150.899 91.6917 150.901V150.901Z" fill="white"/>
<path opacity="0.39" d="M167.382 86.0536C167.049 86.6888 166.646 87.0827 166.146 86.9794C165.043 86.758 165.308 85.6403 165.55 84.3932L165.883 82.5813C163.595 81.1987 161.563 79.4318 159.875 77.3584C159.646 77.0523 159.417 76.7462 159.187 76.4401L157.985 82.8551C157.72 84.2669 157.373 85.1521 156.614 85.0957C155.855 85.0393 155.567 84.0418 155.561 83.3476C155.588 82.3533 156.096 76.2379 156.512 70.8342C156.398 70.4606 156.316 70.081 156.23 69.7221C153.989 68.3686 151.994 66.6432 150.332 64.6198C150.085 64.2902 149.829 63.9488 149.582 63.6191L149.47 64.2544C149.219 66.1517 146.409 88.7155 145.79 92.0833C143.438 89.5076 135.765 77.7941 129.842 83.0584C127.63 85.0101 128.061 87.2785 131.34 90.2078C136.062 94.4267 139.037 99.771 141.874 106.083C145.527 114.246 149.008 118.623 155.579 120.575C155.632 120.646 155.782 120.625 155.873 120.649C158.114 118.251 160.911 116.441 164.016 115.377C167.121 114.314 170.44 114.029 173.682 114.549C174.082 114 174.442 113.423 174.759 112.823C177.184 107.414 179.309 101.876 181.126 96.233C176.225 95.0102 171.873 92.1807 168.766 88.1962C168.258 87.5136 167.795 86.7978 167.382 86.0536V86.0536Z" fill="black"/>
<path d="M148.408 90.8891C148.99 87.6525 151.58 65.939 151.811 64.1073C152.157 61.3598 153.198 59.2716 155.391 59.1584C155.855 59.1105 156.324 59.1625 156.769 59.311C157.213 59.4595 157.621 59.7011 157.967 60.0196C158.313 60.3381 158.587 60.7262 158.772 61.1579C158.958 61.5897 159.05 62.0551 159.042 62.5231C159.062 65.4197 157.794 80.8724 157.749 82.4907C157.743 83.1399 157.865 84.0806 158.761 84.1829C159.658 84.2852 159.823 83.3873 160.083 82.0317C160.343 80.6761 163.148 65.0857 163.545 63.1111C163.578 62.6012 163.717 62.1051 163.954 61.655C164.191 61.205 164.521 60.8111 164.921 60.499C165.322 60.1869 165.784 59.9636 166.278 59.8435C166.772 59.7235 167.287 59.7095 167.789 59.8024C168.234 59.8609 168.664 60.0085 169.053 60.2365C169.441 60.4645 169.781 60.7682 170.052 61.1295C170.323 61.4908 170.519 61.9022 170.628 62.3393C170.738 62.7765 170.759 63.2303 170.69 63.6738C170.547 65.0888 167.471 82.5782 167.305 83.4761C167.14 84.374 166.801 85.6968 167.883 85.9735C168.965 86.2502 169.178 85.003 169.576 83.7834C169.876 82.8217 174.057 68.3381 174.415 67.2593C174.669 66.4061 175.253 65.6932 176.036 65.2772C176.82 64.8613 177.739 64.7765 178.592 65.0414C179.446 65.3063 180.163 65.8993 180.586 66.6899C181.009 67.4805 181.104 68.4039 180.849 69.257C180.503 70.4006 175.783 87.0577 175.683 87.6299C175.583 88.2021 175.433 89.1442 176.104 89.3597C176.776 89.5752 177.362 89.0441 177.691 88.1707C178.021 87.2972 181.704 76.5032 182.139 75.6245C182.28 75.2472 182.493 74.9022 182.768 74.6093C183.043 74.3165 183.373 74.0816 183.74 73.9181C184.106 73.7546 184.503 73.6657 184.905 73.6566C185.308 73.6475 185.71 73.7184 186.087 73.865C187.683 74.512 188.221 76.1544 187.794 78.1141C187.367 80.0739 179.255 105.335 176.301 110.975C174.606 114.179 171.839 116.673 168.48 118.024C165.122 119.375 161.385 119.498 157.919 118.371C151.608 116.465 148.255 112.232 144.685 104.33C141.935 98.2266 139.063 93.0805 134.507 88.9936C131.351 86.143 130.939 83.9638 133.004 82.1225C138.733 77.0748 146.135 88.3904 148.408 90.8891Z" fill="#FCBC34"/>
<path opacity="0.1" d="M147.172 109.337C149.335 112.543 152.571 114.875 156.301 115.917C159.759 117.009 163.494 116.859 166.86 115.492C170.226 114.125 173.012 111.628 174.736 108.431C177.733 102.786 185.876 77.7439 186.37 75.5637C186.519 74.9409 186.552 74.2964 186.467 73.6623C186.349 73.5929 186.224 73.5332 186.095 73.4839C185.72 73.3398 185.32 73.2714 184.918 73.2826C184.515 73.2939 184.119 73.3845 183.752 73.5494C183.384 73.7142 183.053 73.95 182.777 74.2431C182.5 74.5362 182.285 74.8809 182.142 75.2572C181.709 76.1483 177.999 86.8627 177.59 87.8094C177.18 88.7561 176.654 89.2048 176.004 88.9974C175.353 88.7901 175.487 87.8671 175.582 87.284L175.836 86.3257C175.722 86.5377 175.539 86.7051 175.318 86.801C175.098 86.8969 174.851 86.9156 174.618 86.8543C173.947 86.644 174.093 85.7122 174.197 85.1408C174.3 84.5694 179.134 67.9125 179.508 66.7725C179.672 66.2338 179.704 65.6642 179.603 65.1113C179.363 64.953 179.103 64.828 178.829 64.74C178.396 64.5717 177.932 64.4976 177.467 64.5223C177.002 64.5471 176.547 64.6703 176.133 64.8837C175.719 65.0972 175.355 65.3959 175.065 65.7603C174.775 66.1246 174.565 66.5462 174.45 66.9971C174.111 68.1107 169.836 82.5757 169.502 83.5018C169.11 84.7648 168.583 85.8728 167.78 85.7065C166.977 85.5403 167.008 84.4563 167.228 83.2315C167.132 83.3575 167.004 83.455 166.857 83.5135C166.71 83.572 166.55 83.5893 166.394 83.5633C165.348 83.3417 165.634 82.3043 165.845 81.0678C166.02 80.1506 169.21 62.6955 169.371 61.295C169.403 60.9071 169.383 60.5168 169.309 60.1349C168.885 59.8577 168.399 59.6882 167.894 59.6411C167.39 59.5525 166.873 59.5706 166.376 59.6943C165.88 59.8181 165.414 60.0447 165.01 60.3594C164.606 60.6741 164.273 61.07 164.031 61.5213C163.79 61.9726 163.646 62.4693 163.609 62.9792C163.233 64.9249 160.236 80.6806 160.011 81.8732C159.786 83.0658 159.455 84.1178 158.685 84.019C157.914 83.9201 157.643 82.9712 157.67 82.3471L157.695 81.8168C157.572 81.8752 157.434 81.8957 157.299 81.8758C156.39 81.7888 156.257 80.828 156.285 80.2039C156.332 78.5779 157.718 63.1694 157.718 60.2808C157.722 60.0675 157.704 59.8544 157.663 59.6451C157.001 59.2255 156.217 59.0406 155.436 59.1199C153.251 59.2392 152.206 61.3202 151.816 64.0803C151.572 65.9087 148.828 87.5821 148.223 90.8141C145.965 88.3378 138.63 77.1037 132.935 82.157C132.38 82.5453 131.969 83.1057 131.765 83.7508C131.562 84.3959 131.578 85.0895 131.81 85.7235C132.18 86.1278 132.572 86.5117 132.984 86.8737C135.424 89.0945 137.51 91.6737 139.173 94.523C140.621 96.966 141.908 99.5014 143.025 102.113C144.104 104.666 145.438 107.103 147.007 109.387C147.021 109.395 147.037 109.4 147.053 109.402C147.069 109.403 147.085 109.402 147.1 109.397C147.116 109.393 147.13 109.385 147.142 109.374C147.155 109.364 147.165 109.351 147.172 109.337V109.337Z" fill="white"/>
<g style="mix-blend-mode:soft-light" filter="url(#filter1_f)">
<path d="M70.3017 107.257L61.6768 113.718C58.0915 116.404 57.3326 121.448 59.9817 124.984C62.6308 128.52 67.6848 129.209 71.2701 126.523L79.8951 120.062C83.4804 117.376 84.2393 112.332 81.5902 108.796C78.941 105.26 73.887 104.571 70.3017 107.257Z" fill="#C140A3"/>
</g>
<g style="mix-blend-mode:soft-light" filter="url(#filter2_f)">
<path d="M119.934 70.073L111.284 76.5537C107.705 79.2345 106.95 84.2717 109.597 87.8045L109.605 87.8159C112.252 91.3488 117.299 92.0395 120.877 89.3587L129.527 82.878C133.105 80.1972 133.861 75.1601 131.214 71.6272L131.205 71.6158C128.559 68.083 123.512 67.3922 119.934 70.073Z" fill="#C140A3"/>
</g>
<path d="M113.398 119.952C100.2 129.84 79.8957 133.548 66.3737 118.487C66.1159 118.221 65.9737 117.863 65.9782 117.493C65.9828 117.123 66.1337 116.772 66.3979 116.515C66.6621 116.259 67.0179 116.119 67.387 116.126C67.7561 116.134 68.1082 116.288 68.366 116.554C80.724 130.377 99.4802 126.838 111.699 117.684C128.967 104.747 129.498 87.4511 122.396 76.076C122.199 75.7692 122.13 75.3976 122.205 75.0424C122.28 74.6872 122.493 74.3771 122.796 74.1801C123.106 74.0059 123.47 73.952 123.819 74.0284C124.168 74.1049 124.478 74.3065 124.691 74.5953C135.573 91.8903 126.448 110.157 113.422 119.934L113.398 119.952Z" fill="black"/>
<g clip-path="url(#clip0)">
<path d="M100.769 73.1856C100.631 73.2867 100.477 73.3647 100.314 73.4167C100.103 73.4912 99.8785 73.5227 99.6538 73.5095C99.4291 73.4963 99.2083 73.4387 99.0042 73.3398C98.8001 73.241 98.6167 73.1029 98.4644 72.9336C98.3122 72.7642 98.1942 72.5669 98.1171 72.353C97.0637 69.5905 96.9337 66.574 97.747 63.766C98.5603 60.9579 100.272 58.5131 102.62 56.8062V56.8062C104.924 55.0463 107.749 54.099 110.669 54.1076C113.589 54.1161 116.445 55.0799 118.806 56.8535C119.174 57.1285 119.422 57.5369 119.495 57.9895C119.569 58.4421 119.462 58.9021 119.198 59.2691C119.069 59.4528 118.905 59.6081 118.715 59.726C118.524 59.8439 118.312 59.9218 118.089 59.9554C117.867 59.9889 117.64 59.9773 117.42 59.9212C117.201 59.8652 116.994 59.7658 116.811 59.6289C115.035 58.2966 112.887 57.5729 110.691 57.567C108.496 57.5611 106.371 58.2732 104.638 59.596C102.897 60.8918 101.631 62.7274 101.028 64.8286C100.426 66.9299 100.519 69.1838 101.295 71.2536C101.418 71.5947 101.433 71.9635 101.338 72.3095C101.244 72.6554 101.045 72.9615 100.769 73.1856V73.1856Z" fill="black"/>
<path d="M51.9596 109.753C51.8235 109.856 51.6694 109.935 51.5048 109.983C51.2938 110.06 51.0691 110.093 50.8435 110.081C50.618 110.07 50.3961 110.013 50.1908 109.915C49.9855 109.817 49.8008 109.679 49.6473 109.51C49.4939 109.34 49.3748 109.143 49.2969 108.928C48.2483 106.165 48.1204 103.151 48.9328 100.344C49.7452 97.5375 51.4534 95.0931 53.7968 93.3834V93.3834C56.098 91.6194 58.9232 90.6699 61.8438 90.6788C64.7644 90.6878 67.6208 91.6548 69.9797 93.4331C70.1648 93.5659 70.3225 93.7341 70.4434 93.9277C70.5642 94.1214 70.6459 94.3366 70.6835 94.5608C70.7211 94.785 70.7139 95.0136 70.6624 95.2333C70.6109 95.4529 70.5161 95.6591 70.3835 95.8398C70.1201 96.2091 69.7197 96.4553 69.2702 96.5243C68.8208 96.5933 68.3589 96.4795 67.9862 96.2079C66.212 94.877 64.0671 94.1532 61.8742 94.1454C59.6813 94.1376 57.559 94.8462 55.8266 96.1647V96.1647C54.0822 97.459 52.8127 99.2951 52.2084 101.398C51.604 103.501 51.6973 105.757 52.4742 107.829C52.5981 108.168 52.6152 108.535 52.523 108.879C52.4308 109.224 52.234 109.529 51.9596 109.753V109.753Z" fill="black"/>
</g>
<defs>
<filter id="filter0_i" x="0.406616" y="0.406697" width="179.187" height="179.187" filterUnits="userSpaceOnUse" color-interpolation-filters="sRGB">
<feFlood flood-opacity="0" result="BackgroundImageFix"/>
<feBlend mode="normal" in="SourceGraphic" in2="BackgroundImageFix" result="shape"/>
<feColorMatrix in="SourceAlpha" type="matrix" values="0 0 0 0 0 0 0 0 0 0 0 0 0 0 0 0 0 0 127 0" result="hardAlpha"/>
<feOffset dx="-6" dy="-6"/>
<feComposite in2="hardAlpha" operator="arithmetic" k2="-1" k3="1"/>
<feColorMatrix type="matrix" values="0 0 0 0 0 0 0 0 0 0 0 0 0 0 0 0 0 0 0.04 0"/>
<feBlend mode="normal" in2="shape" result="effect1_innerShadow"/>
</filter>
<filter id="filter1_f" x="48.4014" y="95.6184" width="44.7692" height="42.5431" filterUnits="userSpaceOnUse" color-interpolation-filters="sRGB">
<feFlood flood-opacity="0" result="BackgroundImageFix"/>
<feBlend mode="normal" in="SourceGraphic" in2="BackgroundImageFix" result="shape"/>
<feGaussianBlur stdDeviation="5" result="effect1_foregroundBlur"/>
</filter>
<filter id="filter2_f" x="98.0165" y="58.4394" width="44.7776" height="42.5529" filterUnits="userSpaceOnUse" color-interpolation-filters="sRGB">
<feFlood flood-opacity="0" result="BackgroundImageFix"/>
<feBlend mode="normal" in="SourceGraphic" in2="BackgroundImageFix" result="shape"/>
<feGaussianBlur stdDeviation="5" result="effect1_foregroundBlur"/>
</filter>
<clipPath id="clip0">
<rect width="87.4601" height="29.9649" fill="white" transform="translate(39.197 95.5735) rotate(-36.84)"/>
</clipPath>
</defs>
</svg>
