<svg width="168" height="168" viewBox="0 0 168 168" fill="none" xmlns="http://www.w3.org/2000/svg">
<g filter="url(#filter0_i)">
<path d="M156.037 77.2043L130.305 139.573C128.792 143.25 126.569 146.593 123.764 149.411C120.958 152.228 117.625 154.465 113.954 155.993C110.284 157.522 106.348 158.312 102.372 158.318C98.3958 158.325 94.4575 157.548 90.782 156.031L28.413 130.299C20.9959 127.235 15.0982 121.352 12.0149 113.943C8.9317 106.534 8.91502 98.2036 11.9686 90.7821L37.7007 28.4131C39.2133 24.7368 41.4359 21.3947 44.2412 18.5781C47.0466 15.7615 50.3797 13.5256 54.05 11.9982C57.7202 10.4709 61.6556 9.68218 65.6309 9.67711C69.6063 9.67204 73.5436 10.4508 77.2177 11.9687L139.587 37.7008C143.261 39.2145 146.601 41.4371 149.416 44.2415C152.231 47.046 154.466 50.3774 155.993 54.0457C157.521 57.7139 158.311 61.6471 158.318 65.6207C158.326 69.5942 157.55 73.5304 156.037 77.2043V77.2043Z" fill="#FCBC34"/>
</g>
<g style="mix-blend-mode:soft-light" opacity="0.4">
<path d="M89.6598 71.0768L79.4348 86.7071L81.5989 90.6145L89.6598 71.0768Z" fill="black"/>
</g>
<path fill-rule="evenodd" clip-rule="evenodd" d="M35.7982 111.76C54.105 67.3878 118.814 94.0853 100.507 138.457L35.7982 111.76Z" fill="#2B1607"/>
<path fill-rule="evenodd" clip-rule="evenodd" d="M55.7014 92.5931C71.7759 84.7452 93.0737 93.6449 100.073 110.9L55.7014 92.5931Z" fill="white"/>
<path d="M39.474 105.438L102.302 131.359C101.714 133.623 100.956 135.842 100.035 137.996L36.254 111.681C37.1433 109.508 38.2214 107.417 39.474 105.438Z" fill="white"/>
<path d="M100.088 139.317L35.4341 112.642C35.1818 112.538 34.9812 112.338 34.8765 112.086C34.7718 111.833 34.7715 111.55 34.8757 111.297C44.5469 87.8563 66.221 84.2372 82.2604 90.8547C98.2998 97.4722 111.103 115.316 101.449 138.716C101.403 138.848 101.33 138.97 101.236 139.072C101.141 139.175 101.026 139.257 100.898 139.313C100.771 139.37 100.633 139.399 100.493 139.4C100.354 139.4 100.216 139.372 100.088 139.317V139.317ZM37.1849 111.135L99.8552 136.991C103.596 127.355 103.524 117.952 99.656 109.73C95.8975 101.998 89.3882 95.9523 81.4041 92.7782C66.5517 86.6661 46.5113 89.8601 37.1849 111.135Z" fill="black"/>
<g clip-path="url(#clip0)">
<path d="M128.693 88.4192C131.439 81.7619 128.285 74.1453 121.648 71.4071C115.011 68.6688 107.405 71.8457 104.658 78.503L103.163 82.1273C100.416 88.7846 103.57 96.4012 110.207 99.1394C116.844 101.878 124.451 98.7008 127.197 92.0435L128.693 88.4192Z" fill="black"/>
<path d="M114.117 78.6127C115.285 79.0947 116.622 78.5384 117.104 77.3703C117.586 76.2021 117.03 74.8645 115.862 74.3825C114.694 73.9005 113.356 74.4568 112.874 75.625C112.392 76.7931 112.948 78.1308 114.117 78.6127Z" fill="white"/>
<path opacity="0.1" d="M114.673 88.378C117.391 89.4995 120.504 88.2051 121.625 85.4869C122.747 82.7687 121.452 79.656 118.734 78.5346C116.016 77.4131 112.903 78.7075 111.782 81.4257C110.66 84.1439 111.955 87.2566 114.673 88.378Z" fill="white"/>
<path d="M72.3034 65.1542C75.0501 58.4969 71.8963 50.8804 65.2593 48.1421C58.6223 45.4038 51.0154 48.5807 48.2687 55.238L46.7734 58.8623C44.0267 65.5196 47.1805 73.1362 53.8175 75.8745C60.4545 78.6127 68.0615 75.4358 70.8081 68.7785L72.3034 65.1542Z" fill="black"/>
<path d="M57.7275 55.3478C58.8956 55.8297 60.2333 55.2734 60.7153 54.1053C61.1972 52.9371 60.6409 51.5995 59.4728 51.1175C58.3046 50.6356 56.967 51.1918 56.485 52.36C56.0031 53.5281 56.5593 54.8658 57.7275 55.3478Z" fill="white"/>
<path opacity="0.1" d="M58.2839 65.113C61.0021 66.2345 64.1147 64.9401 65.2362 62.2219C66.3577 59.5037 65.0633 56.3911 62.3451 55.2696C59.6269 54.1481 56.5142 55.4425 55.3927 58.1607C54.2713 60.8789 55.5657 63.9916 58.2839 65.113Z" fill="white"/>
</g>
<defs>
<filter id="filter0_i" x="0.428223" y="0.428406" width="167.143" height="167.143" filterUnits="userSpaceOnUse" color-interpolation-filters="sRGB">
<feFlood flood-opacity="0" result="BackgroundImageFix"/>
<feBlend mode="normal" in="SourceGraphic" in2="BackgroundImageFix" result="shape"/>
<feColorMatrix in="SourceAlpha" type="matrix" values="0 0 0 0 0 0 0 0 0 0 0 0 0 0 0 0 0 0 127 0" result="hardAlpha"/>
<feOffset dx="-6" dy="-6"/>
<feComposite in2="hardAlpha" operator="arithmetic" k2="-1" k3="1"/>
<feColorMatrix type="matrix" values="0 0 0 0 0 0 0 0 0 0 0 0 0 0 0 0 0 0 0.04 0"/>
<feBlend mode="normal" in2="shape" result="effect1_innerShadow"/>
</filter>
<clipPath id="clip0">
<rect width="87.4601" height="29.9649" fill="white" transform="translate(53.2419 43.184) rotate(22.42)"/>
</clipPath>
</defs>
</svg>
