<svg width="168" height="168" viewBox="0 0 168 168" fill="none" xmlns="http://www.w3.org/2000/svg">
<g filter="url(#filter0_i)">
<path d="M155.608 76.7736L129.877 139.143C128.364 142.82 126.141 146.163 123.336 148.981C120.531 151.798 117.197 154.035 113.527 155.564C109.856 157.092 105.921 157.882 101.945 157.889C97.9685 157.895 94.0302 157.118 90.3546 155.602L27.9851 129.871C20.5679 126.807 14.6701 120.924 11.5867 113.515C8.50329 106.106 8.48644 97.7761 11.5398 90.3545L37.2706 27.985C38.7832 24.3086 41.0056 20.9665 43.8109 18.1498C46.6162 15.3331 49.9493 13.0971 53.6195 11.5697C57.2898 10.0423 61.2251 9.25351 65.2004 9.24835C69.1758 9.2432 73.1132 10.0218 76.7873 11.5397L139.157 37.2705C142.831 38.7841 146.171 41.0066 148.986 43.811C151.801 46.6154 154.036 49.9468 155.564 53.615C157.091 57.2832 157.881 61.2164 157.889 65.1899C157.897 69.1635 157.121 73.0996 155.608 76.7736Z" fill="#D9915B"/>
</g>
<g style="mix-blend-mode:soft-light" opacity="0.4">
<path d="M89.2306 70.6475L79.006 86.278L81.1702 90.1854L89.2306 70.6475Z" fill="black"/>
</g>
<path fill-rule="evenodd" clip-rule="evenodd" d="M46.0967 80.01C43.1032 114.127 91.2163 132.497 112.655 107.469C88.7344 103.241 66.0401 93.8783 46.0967 80.01Z" fill="#2B1607"/>
<path d="M69.5486 116.729L68.9524 116.483C52.9482 109.619 43.5885 95.2584 45.1113 79.8842C45.1295 79.715 45.1898 79.5525 45.2865 79.4123C45.3832 79.2721 45.5131 79.1588 45.6636 79.0834C45.8174 79.0136 45.9851 78.9845 46.1512 78.9987C46.3172 79.013 46.4761 79.0701 46.613 79.1648C66.4599 93.028 89.0602 102.352 112.909 106.515C113.072 106.544 113.223 106.617 113.348 106.726C113.473 106.835 113.567 106.976 113.62 107.135C113.67 107.298 113.678 107.472 113.644 107.641C113.611 107.81 113.536 107.968 113.428 108.101C103.029 120.124 85.8888 123.47 69.5486 116.729ZM46.8277 81.719C46.1957 95.6645 55.0343 108.406 69.6893 114.697C84.9076 121.237 100.79 118.596 110.82 108.119C87.8681 103.873 66.0971 94.8913 46.8277 81.719Z" fill="black"/>
<g style="mix-blend-mode:soft-light" opacity="0.4">
<path d="M50.8433 115.756C53.4034 122.857 74.6861 132.034 82.1365 128.666C70.9003 126.657 60.2278 122.254 50.8433 115.756Z" fill="#422715"/>
<path d="M50.8433 115.756C53.4034 122.857 74.6861 132.034 82.1365 128.666C70.9003 126.657 60.2278 122.254 50.8433 115.756Z" stroke="black" stroke-width="1.58" stroke-miterlimit="10"/>
</g>
<path fill-rule="evenodd" clip-rule="evenodd" d="M64.5101 131.958L61.9767 130.913C59.5022 129.892 57.5322 127.936 56.5 125.475C55.4679 123.014 55.4581 120.249 56.4729 117.789L62.3605 103.518C63.0867 101.758 66.451 100.944 68.1872 102.183C71.8278 104.791 76.0248 106.523 80.4457 107.24C82.3208 107.602 84.3484 110.53 83.6222 112.29L77.7346 126.561C77.2298 127.784 76.4864 128.896 75.5472 129.83C74.608 130.765 73.4916 131.504 72.2623 132.006C71.033 132.508 69.7152 132.762 68.3847 132.754C67.0542 132.745 65.7374 132.475 64.5101 131.958Z" fill="url(#paint0_linear)"/>
<path fill-rule="evenodd" clip-rule="evenodd" d="M72.8201 105.098C72.271 108.928 68.1655 117.24 68.9022 117.544C69.6388 117.848 72.8309 109.414 75.1311 106.051L72.8201 105.098Z" fill="#A00707"/>
<g clip-path="url(#clip0)">
<path d="M103.527 84.2316C103.37 84.1646 103.224 84.0725 103.096 83.9586C102.924 83.8154 102.783 83.6388 102.679 83.439C102.575 83.2391 102.512 83.0199 102.493 82.7939C102.473 82.5679 102.498 82.3397 102.566 82.1223C102.634 81.9049 102.743 81.7026 102.887 81.527C104.723 79.2095 107.25 77.5559 110.079 76.8196C112.908 76.0832 115.884 76.3047 118.551 77.4502C121.242 78.5307 123.5 80.4747 124.985 82.9887C126.47 85.5027 127.102 88.45 126.784 91.3857C126.736 91.843 126.512 92.2649 126.161 92.5593C125.809 92.8538 125.359 92.9969 124.909 92.9574C124.685 92.9409 124.467 92.8791 124.269 92.7758C124.07 92.6725 123.895 92.5297 123.752 92.3557C123.61 92.1818 123.503 91.9803 123.439 91.763C123.375 91.5458 123.355 91.3171 123.38 91.0905C123.617 88.8827 123.141 86.6666 122.023 84.7764C120.906 82.8862 119.208 81.4242 117.185 80.6109C115.182 79.7769 112.957 79.6267 110.843 80.1828C108.729 80.739 106.839 81.9716 105.457 83.6964C105.226 83.976 104.917 84.1776 104.572 84.2734C104.226 84.3692 103.861 84.3546 103.527 84.2316Z" fill="black"/>
<path d="M47.1493 60.9726C46.9904 60.9086 46.8444 60.8162 46.7183 60.6997C46.5448 60.5574 46.4013 60.3813 46.2961 60.1814C46.1909 59.9816 46.1261 59.762 46.1055 59.5353C46.0849 59.3087 46.1089 59.0795 46.176 58.8611C46.2432 58.6426 46.3522 58.4392 46.4967 58.2627C48.3354 55.949 50.8611 54.2981 53.6885 53.5618C56.516 52.8255 59.4901 53.0441 62.1574 54.1843C64.8498 55.2605 67.1101 57.2034 68.5953 59.7181C70.0805 62.2329 70.7095 65.1822 70.3868 68.1186C70.3673 68.3457 70.3033 68.5671 70.1987 68.77C70.094 68.9729 69.9507 69.1531 69.7773 69.3C69.6038 69.4469 69.4036 69.5576 69.1885 69.6256C68.9734 69.6936 68.7477 69.7175 68.5246 69.6959C68.0726 69.6583 67.6564 69.44 67.3673 69.089C67.0782 68.738 66.9399 68.2829 66.9829 67.8237C67.2198 65.6185 66.7455 63.405 65.6313 61.5162C64.5171 59.6275 62.8232 58.1656 60.8045 57.3506C58.8004 56.5129 56.5734 56.3603 54.4571 56.9158C52.3408 57.4713 50.4491 58.7048 49.0653 60.4318C48.8377 60.7113 48.5311 60.9135 48.1878 61.0104C47.8446 61.1073 47.4817 61.0941 47.1493 60.9726Z" fill="black"/>
</g>
<defs>
<filter id="filter0_i" x="0" y="0" width="167.142" height="167.142" filterUnits="userSpaceOnUse" color-interpolation-filters="sRGB">
<feFlood flood-opacity="0" result="BackgroundImageFix"/>
<feBlend mode="normal" in="SourceGraphic" in2="BackgroundImageFix" result="shape"/>
<feColorMatrix in="SourceAlpha" type="matrix" values="0 0 0 0 0 0 0 0 0 0 0 0 0 0 0 0 0 0 127 0" result="hardAlpha"/>
<feOffset dx="-6" dy="-6"/>
<feComposite in2="hardAlpha" operator="arithmetic" k2="-1" k3="1"/>
<feColorMatrix type="matrix" values="0 0 0 0 0 0 0 0 0 0 0 0 0 0 0 0 0 0 0.04 0"/>
<feBlend mode="normal" in2="shape" result="effect1_innerShadow"/>
</filter>
<linearGradient id="paint0_linear" x1="63.2434" y1="131.436" x2="74.3035" y2="104.627" gradientUnits="userSpaceOnUse">
<stop stop-color="#EF0A0A"/>
<stop offset="0.5" stop-color="#ED0A0A"/>
<stop offset="0.67" stop-color="#E60A0A"/>
<stop offset="0.8" stop-color="#DB0A0A"/>
<stop offset="0.9" stop-color="#CA0A0A"/>
<stop offset="0.99" stop-color="#B40A0A"/>
<stop offset="1" stop-color="#B10A0A"/>
</linearGradient>
<clipPath id="clip0">
<rect width="87.4601" height="29.9649" fill="white" transform="translate(52.8123 42.7555) rotate(22.4188)"/>
</clipPath>
</defs>
</svg>
