<svg width="142" height="142" viewBox="0 0 142 142" fill="none" xmlns="http://www.w3.org/2000/svg">
<g filter="url(#filter0_i)">
<path d="M93.5344 19.127L126.571 60.2602C128.52 62.6824 129.973 65.4649 130.846 68.4489C131.719 71.4328 131.996 74.5596 131.66 77.6505C131.324 80.7413 130.382 83.7357 128.889 86.4624C127.395 89.1891 125.378 91.5947 122.954 93.5415L81.8209 126.578C76.9264 130.505 70.6733 132.329 64.4349 131.65C58.1965 130.97 52.4828 127.843 48.5485 122.954L15.512 81.8208C13.5631 79.3991 12.1108 76.6169 11.2381 73.6334C10.3654 70.6499 10.0894 67.5236 10.426 64.4333C10.7626 61.343 11.7051 58.3494 13.1997 55.6238C14.6942 52.8981 16.7115 50.4938 19.1361 48.5484L60.2692 15.512C62.6908 13.5651 65.4721 12.1143 68.4544 11.2423C71.4367 10.3704 74.5616 10.0944 77.6505 10.43C80.7395 10.7657 83.7321 11.7066 86.4574 13.1988C89.1828 14.691 91.5876 16.7054 93.5344 19.127V19.127Z" fill="#FCBC34"/>
</g>
<g style="mix-blend-mode:soft-light" opacity="0.4">
<path d="M64.3233 62.2972L71.1796 75.1929L74.6723 75.1826L64.3233 62.2972Z" fill="black"/>
</g>
<path d="M89.493 93.337L89.0338 93.7058C83.0112 98.3242 73.7654 100.663 66.6754 95.4685C66.5463 95.3911 66.4353 95.2875 66.3495 95.1643C66.2636 95.041 66.2047 94.9009 66.1767 94.7529C66.1486 94.6048 66.1519 94.452 66.1865 94.3043C66.221 94.1566 66.2859 94.0173 66.3772 93.8951C66.4684 93.773 66.5839 93.6708 66.7163 93.595C66.8487 93.5192 66.9951 93.4715 67.1461 93.455C67.297 93.4385 67.4493 93.4535 67.5932 93.4991C67.7371 93.5447 67.8693 93.6198 67.9816 93.7197C74.1722 98.237 82.3576 96.1087 87.7176 91.9933C92.8202 88.0554 97.4433 80.3299 94.2802 72.1128C94.2657 71.8703 94.3292 71.6284 94.4615 71.422C94.5938 71.2156 94.7879 71.0556 95.0158 70.9652C95.2437 70.8748 95.4935 70.8587 95.7288 70.9192C95.9642 70.9797 96.1729 71.1137 96.3246 71.3017C99.2105 78.8231 96.6603 87.5805 89.493 93.337Z" fill="black"/>
<path fill-rule="evenodd" clip-rule="evenodd" d="M25.9856 82.8424C25.3137 87.8214 37.8569 100.402 46.5578 99.1258C49.4592 98.6896 57.9367 93.7305 60.264 89.7453C64.6246 82.2921 61.5629 70.3088 58.189 66.108C55.7038 63.0137 46.8069 64.3587 41.3308 67.8098C35.9806 71.1599 26.592 78.3156 25.9856 82.8424Z" fill="url(#paint0_linear)"/>
<path fill-rule="evenodd" clip-rule="evenodd" d="M92.2865 29.5923C97.2932 30.0104 106.88 44.9655 103.748 53.1932C102.705 55.925 96.0245 63.14 91.631 64.5527C83.4125 67.2025 72.4081 61.6723 68.9981 57.4267C66.5129 54.3323 69.7458 45.9352 74.2971 41.3327C78.6957 36.8529 87.7355 29.2078 92.2865 29.5923Z" fill="url(#paint1_linear)"/>
<path d="M96.5718 20.7939C96.4987 20.7293 96.4078 20.6883 96.3111 20.6763C96.2143 20.6642 96.1163 20.6816 96.0296 20.7262C90.3998 23.8569 76.0126 33.8435 69.8059 41.0778C67.9805 43.2741 66.528 45.7553 65.5062 48.4228L64.652 50.3223C63.5347 52.8631 61.7807 55.072 59.5596 56.7355C57.4543 58.5493 54.9157 59.788 52.1897 60.3315L50.1507 60.7557C47.3251 61.1759 44.5886 62.0589 42.051 63.3693C33.6786 67.8888 20.8014 79.7554 16.5207 84.5844C16.4568 84.6574 16.4182 84.749 16.4106 84.8458C16.4031 84.9425 16.427 85.0391 16.4789 85.1212C17.7278 87.2107 19.2595 89.1177 21.0303 90.7881C21.0985 90.8462 21.1817 90.8838 21.2704 90.8964C21.359 90.909 21.4494 90.8962 21.531 90.8595C21.531 90.8595 23.7326 89.9199 28.4253 94.4376C32.1289 98.0183 41.7722 105.811 51.2 100.71C53.7172 99.3082 56.1117 97.6969 58.358 95.893C59.3588 95.1089 60.3037 94.2561 61.1858 93.3406C69.2454 84.6775 65.4942 74.2097 63.6739 69.146C63.4346 68.48 63.2334 67.9165 63.0954 67.4502C62.2528 64.5608 62.7748 63.7568 64.2483 62.5733C65.4074 61.6424 66.5762 60.9996 69.2591 62.4998C69.6757 62.7423 70.1986 63.0622 70.7901 63.4306C75.3112 66.2808 84.732 72.1949 94.9427 66.2285C98.4093 63.9437 101.551 61.2011 104.284 58.075C111.308 49.9626 105.788 38.8579 103.073 34.4834C99.6565 28.941 101.047 27.0102 101.049 26.994C101.108 26.9226 101.145 26.8354 101.155 26.7432C101.165 26.6509 101.148 26.5577 101.105 26.4752C99.8629 24.3818 98.3373 22.4699 96.5718 20.7939V20.7939ZM99.6474 36.9537C102.467 41.4217 105.106 48.3142 103.315 53.0227C102.326 55.6373 95.8074 62.7225 91.5164 64.0972C83.3483 66.7361 72.5363 61.0959 69.3575 57.138C67.1902 54.4395 69.8858 46.4591 74.6418 41.633C76.6301 39.6241 78.7307 37.7295 80.9334 35.9583C85.0845 32.6243 89.5808 29.8122 92.2624 30.0408C94.1876 30.211 97.1582 32.9895 99.6474 36.9537ZM57.8297 66.3967C61.0085 70.3545 64.1921 82.1216 59.871 89.5135C57.5759 93.4285 49.2512 98.2649 46.5116 98.645C41.5276 99.3777 35.3758 95.3069 31.6125 91.5966C28.3004 88.3377 26.1796 84.8323 26.4737 82.8796C26.8291 80.2118 30.5541 76.4209 34.6962 73.0941C36.9006 71.3251 39.2038 69.6828 41.5947 68.1751C47.2973 64.6012 55.6479 63.6802 57.8297 66.3967Z" fill="black"/>
<defs>
<filter id="filter0_i" x="0.688721" y="0.688629" width="140.713" height="140.713" filterUnits="userSpaceOnUse" color-interpolation-filters="sRGB">
<feFlood flood-opacity="0" result="BackgroundImageFix"/>
<feBlend mode="normal" in="SourceGraphic" in2="BackgroundImageFix" result="shape"/>
<feColorMatrix in="SourceAlpha" type="matrix" values="0 0 0 0 0 0 0 0 0 0 0 0 0 0 0 0 0 0 127 0" result="hardAlpha"/>
<feOffset dx="-6" dy="-6"/>
<feComposite in2="hardAlpha" operator="arithmetic" k2="-1" k3="1"/>
<feColorMatrix type="matrix" values="0 0 0 0 0 0 0 0 0 0 0 0 0 0 0 0 0 0 0.04 0"/>
<feBlend mode="normal" in2="shape" result="effect1_innerShadow"/>
</filter>
<linearGradient id="paint0_linear" x1="56.4315" y1="93.7704" x2="37.5322" y2="70.2392" gradientUnits="userSpaceOnUse">
<stop offset="0.317708" stop-color="#121212"/>
<stop offset="1" stop-color="#474747"/>
</linearGradient>
<linearGradient id="paint1_linear" x1="77.4851" y1="38.1476" x2="96.3833" y2="61.6775" gradientUnits="userSpaceOnUse">
<stop stop-color="#474747"/>
<stop offset="0.682292" stop-color="#121212"/>
</linearGradient>
</defs>
</svg>
