<svg width="192" height="191" viewBox="0 0 192 191" fill="none" xmlns="http://www.w3.org/2000/svg">
<g filter="url(#filter0_i)">
<path d="M177.312 90.795L145.747 159.752C143.891 163.818 141.251 167.478 137.98 170.522C134.708 173.567 130.869 175.938 126.681 177.498C122.493 179.058 118.038 179.778 113.572 179.615C109.106 179.453 104.715 178.412 100.651 176.552L31.6942 144.987C23.4939 141.228 17.1203 134.369 13.9733 125.915C10.8263 117.461 11.1631 108.104 14.9097 99.8979L46.4746 30.9408C48.3306 26.8759 50.9696 23.2168 54.2409 20.1728C57.5122 17.1288 61.3515 14.7596 65.5393 13.2007C69.727 11.6418 74.181 10.9238 78.6465 11.0877C83.112 11.2517 87.5013 12.2944 91.5635 14.1562L160.521 45.7212C164.583 47.5782 168.239 50.2172 171.282 53.4874C174.324 56.7576 176.692 60.595 178.251 64.7805C179.811 68.966 180.53 73.4176 180.369 77.8812C180.208 82.3447 179.169 86.7329 177.312 90.795V90.795Z" fill="#5352ED"/>
</g>
<g style="mix-blend-mode:soft-light" opacity="0.4">
<path d="M103.017 81.0796L90.8644 98.1998L93.1284 102.681L103.017 81.0796Z" fill="#121212"/>
</g>
<g style="mix-blend-mode:soft-light" filter="url(#filter1_f)">
<path d="M68.4841 85.1819L57.4694 80.1399C52.8907 78.0441 47.5033 80.0057 45.4362 84.5215C43.3691 89.0372 45.4052 94.397 49.9839 96.4929L60.9986 101.535C65.5773 103.631 70.9647 101.669 73.0318 97.1533C75.0989 92.6376 73.0628 87.2778 68.4841 85.1819Z" fill="#121212"/>
</g>
<g style="mix-blend-mode:soft-light" filter="url(#filter2_f)">
<path d="M131.868 114.196L120.821 109.139C116.251 107.047 110.872 109.009 108.807 113.521L108.801 113.535C106.735 118.047 108.766 123.4 113.335 125.492L124.382 130.549C128.952 132.64 134.331 130.679 136.396 126.167L136.403 126.152C138.468 121.641 136.438 116.288 131.868 114.196Z" fill="#121212"/>
</g>
<path d="M123.077 131.187C123.35 131.312 123.58 131.514 123.74 131.768C123.9 132.023 123.983 132.319 123.978 132.62C124.151 136.805 122.782 140.914 120.132 144.162C117.483 147.41 113.739 149.57 109.617 150.229C105.458 150.927 101.196 150.063 97.6458 147.802C94.0953 145.541 91.5047 142.043 90.3687 137.974C90.366 137.624 90.4739 137.281 90.6768 136.996C90.8797 136.71 91.1672 136.496 91.498 136.384C91.8288 136.272 92.1859 136.269 92.5179 136.373C92.85 136.478 93.1398 136.686 93.3459 136.967C94.2715 140.317 96.3939 143.201 99.3086 145.069C102.223 146.938 105.726 147.66 109.149 147.099C114.512 146.219 120.821 141.89 120.857 132.595C120.895 132.185 121.083 131.803 121.385 131.524C121.687 131.244 122.081 131.087 122.491 131.083C122.692 131.077 122.891 131.113 123.077 131.187V131.187Z" fill="#121212"/>
<path d="M146.119 102.225C149.489 94.8646 146.271 86.1747 138.933 82.8157C131.595 79.4567 122.915 82.7006 119.546 90.0611L117.712 94.0682C114.342 101.429 117.56 110.119 124.898 113.478C132.236 116.837 140.916 113.593 144.285 106.232L146.119 102.225Z" fill="#121212"/>
<path d="M130.166 90.588C131.457 91.1792 132.983 90.6115 133.575 89.32C134.166 88.0284 133.598 86.5022 132.307 85.911C131.015 85.3197 129.489 85.8875 128.898 87.179C128.306 88.4706 128.874 89.9968 130.166 90.588Z" fill="white"/>
<path opacity="0.1" d="M130.374 101.581C133.379 102.956 136.931 101.635 138.307 98.6298C139.682 95.6245 138.361 92.073 135.356 90.6973C132.351 89.3216 128.799 90.6427 127.423 93.648C126.048 96.6533 127.369 100.205 130.374 101.581Z" fill="white"/>
<path d="M83.7738 73.6865C87.143 66.326 83.9256 57.6362 76.5875 54.2772C69.2495 50.9182 60.5695 54.162 57.2002 61.5225L55.366 65.5297C51.9967 72.8901 55.2141 81.58 62.5522 84.939C69.8903 88.2979 78.5703 85.0541 81.9395 77.6936L83.7738 73.6865Z" fill="#121212"/>
<path d="M67.8199 62.0495C69.1115 62.6407 70.6377 62.0729 71.2289 60.7814C71.8201 59.4898 71.2524 57.9636 69.9609 57.3724C68.6693 56.7812 67.1431 57.3489 66.5519 58.6405C65.9606 59.932 66.5284 61.4583 67.8199 62.0495Z" fill="white"/>
<path opacity="0.1" d="M68.0284 73.0419C71.0338 74.4176 74.5853 73.0965 75.9609 70.0912C77.3366 67.0859 76.0155 63.5344 73.0102 62.1587C70.0049 60.783 66.4534 62.1041 65.0777 65.1094C63.702 68.1148 65.0231 71.6663 68.0284 73.0419Z" fill="white"/>
<path d="M152.371 80.7601L133.075 71.9274C126.109 68.7387 117.887 71.7781 114.711 78.716L105.914 97.934C102.739 104.872 105.811 113.081 112.777 116.27L132.073 125.103C139.039 128.291 147.261 125.252 150.437 118.314L159.234 99.0959C162.409 92.158 159.337 83.9488 152.371 80.7601Z" fill="url(#paint0_linear)"/>
<path d="M87.9481 51.2707L68.6522 42.438C61.6861 39.2493 53.4646 42.2887 50.2887 49.2266L41.4917 68.4446C38.3159 75.3825 41.3885 83.5918 48.3545 86.7804L67.6505 95.6131C74.6165 98.8018 82.8381 95.7625 86.0139 88.8246L94.8109 69.6065C97.9867 62.6686 94.9141 54.4594 87.9481 51.2707Z" fill="url(#paint1_linear)"/>
<path d="M66.2734 97.9927L46.9775 89.16C43.0007 87.3158 39.9096 83.9829 38.3761 79.8857C36.8426 75.7886 36.9906 71.2583 38.788 67.2795L47.6056 48.0165C49.4458 44.0589 52.7783 40.989 56.8804 39.4725C60.9825 37.9561 65.5236 38.1153 69.519 39.9156L88.8149 48.7483C92.8046 50.5985 95.9023 53.9469 97.4305 58.0612C98.9588 62.1755 98.7932 66.721 96.9701 70.7037L88.2142 89.8318C87.3187 91.8091 86.04 93.5893 84.4515 95.0704C82.8629 96.5514 80.9958 97.7041 78.9572 98.4624C76.9187 99.2206 74.7489 99.5694 72.5722 99.4888C70.3956 99.4082 68.2551 98.8998 66.2734 97.9927ZM67.2751 44.8176C65.9438 44.2058 64.5055 43.8611 63.0423 43.8033C61.5792 43.7455 60.1198 43.9757 58.7476 44.4807C57.3753 44.9856 56.1171 45.7555 55.0446 46.7464C53.9722 47.7373 53.1066 48.9298 52.4973 50.2557L43.7071 69.4588C42.4887 72.1311 42.3838 75.1794 43.4154 77.9357C44.447 80.6919 46.531 82.9311 49.2105 84.1624L68.5516 93.0158C71.2347 94.2392 74.2915 94.3531 77.0519 93.3327C79.8122 92.3122 82.051 90.2406 83.2774 87.5719L92.0675 68.3689C93.2866 65.6952 93.3927 62.6455 92.3626 59.8871C91.3325 57.1287 89.2501 54.8862 86.5711 53.6502L67.2751 44.8176Z" fill="#121212"/>
<path d="M130.934 127.591L111.653 118.765C107.676 116.921 104.585 113.588 103.052 109.491C101.518 105.394 101.666 100.864 103.464 96.8848L112.281 77.6218C114.122 73.6642 117.454 70.5943 121.556 69.0778C125.658 67.5614 130.199 67.7206 134.195 69.5209L153.476 78.3467C157.462 80.2003 160.557 83.5489 162.085 87.6619C163.613 91.775 163.449 96.3188 161.631 100.302L152.875 119.43C151.049 123.408 147.717 126.5 143.606 128.029C139.495 129.558 134.939 129.4 130.934 127.591V127.591ZM131.951 74.4228C129.265 73.1983 126.205 73.0853 123.443 74.1088C120.681 75.1323 118.442 77.2085 117.218 79.8816L108.428 99.0847C107.21 101.757 107.105 104.805 108.136 107.562C109.168 110.318 111.252 112.557 113.931 113.788L133.212 122.614C135.895 123.838 138.952 123.952 141.713 122.931C144.473 121.911 146.712 119.839 147.938 117.17L156.728 97.9673C157.952 95.2942 158.06 92.2428 157.03 89.4831C155.999 86.7235 153.914 84.4812 151.232 83.2486L131.951 74.4228Z" fill="#121212"/>
<path d="M112.818 82.8536L92.679 73.6351L90.3939 78.627L110.533 87.8455L112.818 82.8536Z" fill="#121212"/>
<path d="M166.966 117.123L153.751 111.074C153.142 110.736 152.683 110.182 152.465 109.523C152.247 108.863 152.286 108.146 152.575 107.516C152.863 106.886 153.38 106.388 154.022 106.122C154.663 105.856 155.383 105.842 156.036 106.082L169.251 112.131C169.86 112.469 170.32 113.022 170.538 113.682C170.756 114.342 170.717 115.058 170.428 115.689C170.14 116.319 169.623 116.817 168.981 117.083C168.339 117.349 167.62 117.363 166.966 117.123Z" fill="#121212"/>
<path d="M44.5681 61.0952L32.9634 55.7832C32.3546 55.4456 31.8953 54.8917 31.6771 54.2321C31.459 53.5726 31.4981 52.8561 31.7867 52.2256C32.0753 51.5952 32.5921 51.0973 33.2338 50.8314C33.8756 50.5655 34.595 50.5512 35.2484 50.7913L46.8531 56.1033C47.4619 56.441 47.9212 56.9949 48.1394 57.6544C48.3575 58.3139 48.3184 59.0304 48.0298 59.6609C47.7412 60.2913 47.2244 60.7892 46.5827 61.0551C45.9409 61.321 45.2215 61.3353 44.5681 61.0952V61.0952Z" fill="#121212"/>
<defs>
<filter id="filter0_i" x="11.8345" y="11.0648" width="168.557" height="168.573" filterUnits="userSpaceOnUse" color-interpolation-filters="sRGB">
<feFlood flood-opacity="0" result="BackgroundImageFix"/>
<feBlend mode="normal" in="SourceGraphic" in2="BackgroundImageFix" result="shape"/>
<feColorMatrix in="SourceAlpha" type="matrix" values="0 0 0 0 0 0 0 0 0 0 0 0 0 0 0 0 0 0 127 0" result="hardAlpha"/>
<feOffset dx="-6" dy="-6"/>
<feComposite in2="hardAlpha" operator="arithmetic" k2="-1" k3="1"/>
<feColorMatrix type="matrix" values="0 0 0 0 0 0 0 0 0 0 0 0 0 0 0 0 0 0 0.04 0"/>
<feBlend mode="normal" in2="shape" result="effect1_innerShadow"/>
</filter>
<filter id="filter1_f" x="34.6282" y="69.3" width="49.2115" height="43.0747" filterUnits="userSpaceOnUse" color-interpolation-filters="sRGB">
<feFlood flood-opacity="0" result="BackgroundImageFix"/>
<feBlend mode="normal" in="SourceGraphic" in2="BackgroundImageFix" result="shape"/>
<feGaussianBlur stdDeviation="5" result="effect1_foregroundBlur"/>
</filter>
<filter id="filter2_f" x="97.9924" y="98.3015" width="49.2183" height="43.0847" filterUnits="userSpaceOnUse" color-interpolation-filters="sRGB">
<feFlood flood-opacity="0" result="BackgroundImageFix"/>
<feBlend mode="normal" in="SourceGraphic" in2="BackgroundImageFix" result="shape"/>
<feGaussianBlur stdDeviation="5" result="effect1_foregroundBlur"/>
</filter>
<linearGradient id="paint0_linear" x1="1716.95" y1="2734.73" x2="3033.92" y2="3337.57" gradientUnits="userSpaceOnUse">
<stop stop-color="white" stop-opacity="0.3"/>
<stop offset="0.5" stop-color="#969696" stop-opacity="0.2"/>
<stop offset="1" stop-color="white" stop-opacity="0.3"/>
</linearGradient>
<linearGradient id="paint1_linear" x1="1652.53" y1="2705.24" x2="2969.5" y2="3308.08" gradientUnits="userSpaceOnUse">
<stop stop-color="white" stop-opacity="0.3"/>
<stop offset="0.5" stop-color="#969696" stop-opacity="0.2"/>
<stop offset="1" stop-color="white" stop-opacity="0.3"/>
</linearGradient>
</defs>
</svg>
