<svg width="141" height="141" viewBox="0 0 141 141" fill="none" xmlns="http://www.w3.org/2000/svg">
<g filter="url(#filter0_i)">
<path d="M92.8506 18.4399L125.884 59.5764C127.833 61.9987 129.286 64.7814 130.159 67.7655C131.032 70.7495 131.308 73.8764 130.972 76.9673C130.636 80.0581 129.694 83.0525 128.2 85.7791C126.706 88.5057 124.689 90.9111 122.264 92.8578L81.128 125.891C76.2331 129.818 69.9798 131.642 63.7414 130.962C57.5029 130.282 51.7894 127.154 47.8555 122.264L14.822 81.128C12.8733 78.7061 11.4211 75.9238 10.5487 72.9401C9.67619 69.9565 9.40049 66.8301 9.73734 63.7398C10.0742 60.6496 11.017 57.656 12.5118 54.9304C14.0066 52.2048 16.0241 49.8007 18.4488 47.8555L59.5853 14.822C62.0071 12.8753 64.7886 11.4247 67.771 10.553C70.7534 9.68127 73.8783 9.40552 76.9672 9.74147C80.0562 10.0774 83.0488 11.0185 85.774 12.511C88.4993 14.0035 90.9039 16.0181 92.8506 18.4399Z" fill="#D84BE5"/>
</g>
<g style="mix-blend-mode:soft-light" opacity="0.4">
<path d="M63.6354 61.6082L70.4908 74.5046L73.9835 74.4946L63.6354 61.6082Z" fill="black"/>
</g>
<path fill-rule="evenodd" clip-rule="evenodd" d="M52.324 92.8604C73.8669 119.688 117.766 84.4356 96.2232 57.6083C85.7533 74.909 71.2499 86.8211 52.324 92.8604Z" fill="white"/>
<path fill-rule="evenodd" clip-rule="evenodd" d="M66.384 101.627C82.8682 104.234 100.65 90.1598 102.032 73.5846C92.238 85.3049 80.0773 94.8711 66.384 101.627Z" fill="#DDDBDB"/>
<path d="M90.9393 95.9426C85.4328 100.531 78.5174 103.092 71.3409 103.2C63.6808 103.163 56.8767 99.7787 51.7461 93.3896C51.6639 93.2852 51.6077 93.1629 51.5821 93.0327C51.5565 92.9024 51.5622 92.7681 51.5987 92.6407C51.6385 92.5149 51.7072 92.4002 51.7992 92.3058C51.8913 92.2115 52.0043 92.1401 52.129 92.0973C70.4054 86.2398 84.9997 74.5203 95.4934 57.2747C95.5581 57.1546 95.6516 57.0525 95.7655 56.9777C95.8795 56.9029 96.0104 56.8577 96.1464 56.8462C96.2824 56.8346 96.4192 56.8571 96.5446 56.9116C96.67 56.9661 96.78 57.0509 96.8646 57.1584C101.995 63.5475 103.866 70.8933 102.212 78.4093C100.558 85.3724 96.5824 91.5562 90.9393 95.9426ZM53.8191 93.2535C64.5072 105.542 79.9118 102.711 89.9204 94.6737C99.9289 86.6367 106.064 72.171 96.3143 59.0995C85.8866 75.807 71.6022 87.2924 53.8191 93.2535Z" fill="black"/>
<g style="mix-blend-mode:soft-light" opacity="0.4">
<path d="M82.2642 103.918C87.536 104.861 100.221 95.0179 100.555 89.2301C95.6195 95.4239 89.3777 100.436 82.2642 103.918Z" fill="black"/>
</g>
<path d="M90.7275 53.9983L86.7108 57.2238C80.7929 61.976 80.8287 62.0206 76.0407 56.0581L74.0409 53.5678C73.255 52.5915 72.6693 51.47 72.3172 50.2672C71.9651 49.0645 71.8535 47.8041 71.9889 46.5582C72.1243 45.3123 72.5039 44.1053 73.1061 43.0062C73.7082 41.9071 74.5211 40.9375 75.4983 40.1528L76.4802 39.3644C77.4573 38.5797 78.5796 37.9953 79.7828 37.6446C80.986 37.294 82.2465 37.1839 83.4922 37.3208C84.7379 37.4576 85.9445 37.8387 87.0428 38.4422C88.1412 39.0457 89.1098 39.8598 89.8934 40.8379L91.929 43.3728C96.6633 49.3051 96.6275 49.2604 90.7275 53.9983Z" fill="black"/>
<path d="M78.0699 47.6489C78.8404 47.0302 78.9634 45.904 78.3447 45.1336C77.726 44.3631 76.5999 44.24 75.8294 44.8588C75.0589 45.4775 74.9359 46.6036 75.5546 47.3741C76.1733 48.1446 77.2994 48.2676 78.0699 47.6489Z" fill="white"/>
<path opacity="0.1" d="M84.9702 50.9481C86.7631 49.5084 87.0494 46.8879 85.6097 45.0951C84.17 43.3023 81.5495 43.016 79.7567 44.4557C77.9639 45.8954 77.6776 48.5158 79.1173 50.3087C80.557 52.1015 83.1774 52.3878 84.9702 50.9481Z" fill="white"/>
<path d="M41.2097 86.742C41.1045 86.8246 40.9865 86.8896 40.8602 86.9345C40.6973 86.9983 40.5229 87.0288 40.3469 87.0244C40.171 87.02 39.9969 86.9807 39.8348 86.9088C39.6727 86.837 39.5257 86.7339 39.4023 86.6055C39.2788 86.4772 39.1814 86.3261 39.1156 86.161C38.2198 84.0296 38.0389 81.6756 38.6008 79.4597C39.1626 77.2438 40.4362 75.2881 42.2262 73.8925C43.9805 72.4565 46.1636 71.642 48.4458 71.572C50.7279 71.5019 52.9853 72.1802 54.8769 73.5042C55.1721 73.7095 55.3766 74.0222 55.4459 74.3739C55.5152 74.7257 55.4436 75.088 55.2468 75.3817C55.1512 75.5287 55.0269 75.6544 54.8812 75.7515C54.7356 75.8486 54.5716 75.9152 54.3987 75.9472C54.2259 75.9793 54.0477 75.9762 53.8748 75.9381C53.7018 75.9001 53.5374 75.8278 53.3914 75.7257C51.9681 74.7311 50.2704 74.222 48.5542 74.275C46.8381 74.3281 45.1965 74.9404 43.8768 76.0198C42.5502 77.0781 41.6087 78.546 41.193 80.204C40.7772 81.862 40.9096 83.621 41.5703 85.2182C41.675 85.4816 41.6965 85.7695 41.632 86.0423C41.5674 86.3151 41.4199 86.5596 41.2097 86.742Z" fill="black"/>
<defs>
<filter id="filter0_i" x="9.59814" y="9.60276" width="121.512" height="121.499" filterUnits="userSpaceOnUse" color-interpolation-filters="sRGB">
<feFlood flood-opacity="0" result="BackgroundImageFix"/>
<feBlend mode="normal" in="SourceGraphic" in2="BackgroundImageFix" result="shape"/>
<feColorMatrix in="SourceAlpha" type="matrix" values="0 0 0 0 0 0 0 0 0 0 0 0 0 0 0 0 0 0 127 0" result="hardAlpha"/>
<feOffset dx="-6" dy="-6"/>
<feComposite in2="hardAlpha" operator="arithmetic" k2="-1" k3="1"/>
<feColorMatrix type="matrix" values="0 0 0 0 0 0 0 0 0 0 0 0 0 0 0 0 0 0 0.04 0"/>
<feBlend mode="normal" in2="shape" result="effect1_innerShadow"/>
</filter>
</defs>
</svg>
