<svg width="180" height="180" viewBox="0 0 180 180" fill="none" xmlns="http://www.w3.org/2000/svg">
<g filter="url(#filter0_i)">
<path d="M120.578 24.2057L161.027 78.2049C163.413 81.3849 165.15 85.0041 166.137 88.8556C167.125 92.7071 167.343 96.7154 166.78 100.651C166.218 104.587 164.885 108.374 162.858 111.795C160.831 115.215 158.149 118.203 154.967 120.586L100.968 161.035C94.5427 165.844 86.4718 167.905 78.5277 166.767C70.5836 165.63 63.4158 161.386 58.5983 154.967L18.1493 100.968C15.7629 97.7886 14.0267 94.17 13.0401 90.319C12.0535 86.468 11.8357 82.4603 12.3993 78.5251C12.9629 74.5899 14.2968 70.8044 16.3247 67.3852C18.3525 63.966 21.0346 60.9801 24.2175 58.5983L78.2167 18.1493C81.3958 15.7655 85.0133 14.0312 88.8627 13.0455C92.712 12.0598 96.7179 11.8419 100.651 12.4043C104.585 12.9667 108.369 14.2983 111.788 16.3232C115.207 18.3481 118.194 21.0266 120.578 24.2057Z" fill="#F6D594"/>
</g>
<g style="mix-blend-mode:soft-light" opacity="0.4">
<path d="M81.3787 78.1214L89.5852 94.8997L94.0498 95.0373L81.3787 78.1214Z" fill="black"/>
</g>
<path fill-rule="evenodd" clip-rule="evenodd" d="M65.5757 117.578C91.9547 152.794 149.58 109.628 123.201 74.4124C109.075 96.0737 90.0251 110.674 65.5757 117.578Z" fill="white"/>
<path fill-rule="evenodd" clip-rule="evenodd" d="M83.1686 129.389C104.125 133.43 127.457 116.207 129.938 95.082C116.915 109.64 100.961 121.343 83.1686 129.389Z" fill="#DDDBDB"/>
<path d="M114.798 123.18C107.562 128.808 98.6131 131.783 89.4362 131.612C79.6473 131.235 71.0967 126.616 64.8143 118.23C64.7138 118.093 64.6472 117.934 64.6201 117.766C64.5929 117.599 64.606 117.427 64.6582 117.266C64.7145 117.107 64.8072 116.963 64.9289 116.847C65.0507 116.73 65.1981 116.644 65.3594 116.594C88.9708 109.895 108.129 95.5444 122.283 73.9546C122.371 73.8039 122.495 73.6774 122.644 73.5867C122.793 73.496 122.962 73.4439 123.136 73.435C123.311 73.4261 123.484 73.4607 123.642 73.5358C123.8 73.6108 123.937 73.724 124.041 73.865C130.323 82.2519 132.398 91.7211 129.961 101.256C127.547 110.085 122.199 117.817 114.798 123.18ZM67.4697 118.145C80.6011 134.311 100.412 131.356 113.55 121.515C126.688 111.673 135.152 93.4488 123.254 76.3222C109.207 97.2272 90.4551 111.292 67.4697 118.145Z" fill="black"/>
<g style="mix-blend-mode:soft-light" opacity="0.4">
<path d="M103.366 133.001C110.064 134.432 126.7 122.398 127.377 115.015C120.802 122.719 112.608 128.856 103.366 133.001Z" fill="black"/>
</g>
<path d="M116.31 69.4784L111.027 73.4353C103.244 79.2653 103.288 79.324 97.4145 71.4824L95.436 68.8411C93.3689 66.0751 92.4834 62.602 92.9738 59.1839C93.4642 55.7658 95.2904 52.6818 98.0518 50.6085C100.818 48.5414 104.291 47.6559 107.709 48.1463C111.127 48.6367 114.211 50.4629 116.284 53.2243L118.307 55.9242C124.113 63.7247 124.069 63.666 116.31 69.4784Z" fill="black"/>
<path d="M100.334 60.9499C101.344 60.1937 101.549 58.7624 100.793 57.7529C100.037 56.7434 98.6054 56.538 97.5959 57.2942C96.5864 58.0504 96.3811 59.4817 97.1372 60.4912C97.8934 61.5007 99.3248 61.7061 100.334 60.9499Z" fill="white"/>
<path opacity="0.1" d="M108.995 65.4553C111.344 63.6958 111.822 60.3651 110.063 58.0161C108.303 55.6671 104.972 55.1893 102.623 56.9488C100.274 58.7084 99.7965 62.0391 101.556 64.3881C103.316 66.7371 106.646 67.2149 108.995 65.4553Z" fill="white"/>
<path d="M67.488 106.049L62.2054 110.006C54.4225 115.836 54.4665 115.895 48.5926 108.053L46.6141 105.412C44.547 102.646 43.6615 99.1728 44.1519 95.7547C44.6423 92.3366 46.4685 89.2526 49.2299 87.1793C51.9959 85.1122 55.4689 84.2267 58.887 84.7171C62.3051 85.2075 65.3892 87.0337 67.4625 89.7951L69.4849 92.4951C75.2914 100.296 75.2474 100.237 67.488 106.049Z" fill="black"/>
<path d="M51.6068 97.4724C52.6181 96.7148 52.8239 95.2807 52.0663 94.2693C51.3087 93.2579 49.8746 93.0522 48.8633 93.8098C47.8519 94.5674 47.6461 96.0014 48.4037 97.0128C49.1613 98.0242 50.5954 98.2299 51.6068 97.4724Z" fill="white"/>
<path opacity="0.1" d="M60.2841 101.986C62.6375 100.223 63.1162 96.8864 61.3534 94.533C59.5905 92.1796 56.2536 91.7009 53.9002 93.4637C51.5467 95.2266 51.068 98.5635 52.8309 100.917C54.5937 103.27 57.9306 103.749 60.2841 101.986Z" fill="white"/>
<defs>
<filter id="filter0_i" x="12.0939" y="12.0997" width="154.991" height="154.974" filterUnits="userSpaceOnUse" color-interpolation-filters="sRGB">
<feFlood flood-opacity="0" result="BackgroundImageFix"/>
<feBlend mode="normal" in="SourceGraphic" in2="BackgroundImageFix" result="shape"/>
<feColorMatrix in="SourceAlpha" type="matrix" values="0 0 0 0 0 0 0 0 0 0 0 0 0 0 0 0 0 0 127 0" result="hardAlpha"/>
<feOffset dx="-6" dy="-6"/>
<feComposite in2="hardAlpha" operator="arithmetic" k2="-1" k3="1"/>
<feColorMatrix type="matrix" values="0 0 0 0 0 0 0 0 0 0 0 0 0 0 0 0 0 0 0.04 0"/>
<feBlend mode="normal" in2="shape" result="effect1_innerShadow"/>
</filter>
</defs>
</svg>
